<?xml version="1.0" standalone="no"?>
 <!DOCTYPE svg PUBLIC "-//W3C//DTD SVG 1.1//EN" 
 "http://www.w3.org/Graphics/SVG/1.1/DTD/svg11.dtd"> 
<svg
  xmlns:svg="http://www.w3.org/2000/svg"
  xmlns="http://www.w3.org/2000/svg"
  xmlns:xlink="http://www.w3.org/1999/xlink"
  xmlns:inkscape="http://www.inkscape.org/namespaces/inkscape"
  version="1.1"
  width="76.2254mm" height="50.8254mm" viewBox="0.0000 0.0000 76.2254 50.8254">
<title>SVG Image created as pcb_back.svg date 2026-01-15T07:36:22+0000 </title>
  <desc>Image generated by PCBNEW </desc>
<g style="fill:#000000; fill-opacity:1.0000;stroke:#000000; stroke-opacity:1.0000;
stroke-linecap:round; stroke-linejoin:round;"
 transform="translate(0 0) scale(1 1)">
<path style="fill:#4D7FC4; fill-opacity:1.0000; stroke:none;fill-rule:evenodd;"
d="M 20.6563,46.4690
20.6373,46.3734
20.5831,46.2923
20.5020,46.2381
20.4063,46.2190
19.7064,46.2190
19.6107,46.2381
19.5296,46.2923
19.4754,46.3734
19.4564,46.4690
19.4564,47.7190
19.4754,47.8147
19.5296,47.8958
19.6107,47.9500
19.7064,47.9690
20.4063,47.9690
20.5020,47.9500
20.5831,47.8958
20.6373,47.8147
20.6563,47.7190
Z" /> 
</g>
<g style="fill:none; 
stroke:#4D7FC4; stroke-width:1.2000; stroke-opacity:1; 
stroke-linecap:round; stroke-linejoin:round;">
<path d="M18.0563 46.8190
L18.0563 47.3690
" />
<path style="fill:#4D7FC4; fill-opacity:1.0000; stroke:none;fill-rule:evenodd;"
d="M 17.4564,4.3690
17.4754,4.4647
17.5296,4.5458
17.6107,4.6000
17.7064,4.6190
18.4063,4.6190
18.5020,4.6000
18.5831,4.5458
18.6373,4.4647
18.6563,4.3690
18.6563,3.1190
18.6373,3.0234
18.5831,2.9423
18.5020,2.8881
18.4063,2.8690
17.7064,2.8690
17.6107,2.8881
17.5296,2.9423
17.4754,3.0234
17.4564,3.1190
Z" /> 
</g>
<g style="fill:none; 
stroke:#4D7FC4; stroke-width:1.2000; stroke-opacity:1; 
stroke-linecap:round; stroke-linejoin:round;">
<path d="M20.0563 4.0191
L20.0563 3.4690
" />
<path style="fill:#4D7FC4; fill-opacity:1.0000; stroke:none;fill-rule:evenodd;"
d="M 4.3563,20.6690
4.4520,20.6500
4.5331,20.5958
4.5873,20.5147
4.6063,20.4190
4.6063,19.7190
4.5873,19.6234
4.5331,19.5423
4.4520,19.4881
4.3563,19.4690
3.1063,19.4690
3.0107,19.4881
2.9296,19.5423
2.8754,19.6234
2.8563,19.7190
2.8563,20.4190
2.8754,20.5147
2.9296,20.5958
3.0107,20.6500
3.1063,20.6690
Z" /> 
</g>
<g style="fill:none; 
stroke:#4D7FC4; stroke-width:1.2000; stroke-opacity:1; 
stroke-linecap:round; stroke-linejoin:round;">
<path d="M4.0063 18.0691
L3.4564 18.0691
" />
<path style="fill:#4D7FC4; fill-opacity:1.0000; stroke:none;fill-rule:evenodd;"
d="M 55.5563,4.3690
55.5754,4.4647
55.6296,4.5458
55.7107,4.6000
55.8063,4.6190
56.5063,4.6190
56.6020,4.6000
56.6831,4.5458
56.7373,4.4647
56.7563,4.3690
56.7563,3.1190
56.7373,3.0234
56.6831,2.9423
56.6020,2.8881
56.5063,2.8690
55.8063,2.8690
55.7107,2.8881
55.6296,2.9423
55.5754,3.0234
55.5563,3.1190
Z" /> 
</g>
<g style="fill:none; 
stroke:#4D7FC4; stroke-width:1.2000; stroke-opacity:1; 
stroke-linecap:round; stroke-linejoin:round;">
<path d="M58.1563 4.0191
L58.1563 3.4690
" />
</g>
<g style="fill:none; 
stroke:#4D7FC4; stroke-width:1.0000; stroke-opacity:1; 
stroke-linecap:round; stroke-linejoin:round;">
<path d="M68.0863 21.0990
L69.1863 21.0990
" />
<path d="M72.4363 21.0990
L73.2364 21.0990
" />
<path d="M68.0863 29.7390
L69.1863 29.7390
" />
<path d="M72.4363 29.7390
L73.2364 29.7390
" />
<path style="fill:#4D7FC4; fill-opacity:1.0000; stroke:none;fill-rule:evenodd;"
d="M 4.3563,33.3691
4.4520,33.3500
4.5331,33.2958
4.5873,33.2147
4.6063,33.1191
4.6063,32.4190
4.5873,32.3234
4.5331,32.2423
4.4520,32.1881
4.3563,32.1690
3.1063,32.1690
3.0107,32.1881
2.9296,32.2423
2.8754,32.3234
2.8563,32.4190
2.8563,33.1191
2.8754,33.2147
2.9296,33.2958
3.0107,33.3500
3.1063,33.3691
Z" /> 
</g>
<g style="fill:none; 
stroke:#4D7FC4; stroke-width:1.2000; stroke-opacity:1; 
stroke-linecap:round; stroke-linejoin:round;">
<path d="M4.0063 30.7691
L3.4564 30.7691
" />
<path style="fill:#4D7FC4; fill-opacity:1.0000; stroke:none;fill-rule:evenodd;"
d="M 58.7563,46.4690
58.7373,46.3734
58.6831,46.2923
58.6020,46.2381
58.5063,46.2190
57.8063,46.2190
57.7107,46.2381
57.6296,46.2923
57.5754,46.3734
57.5563,46.4690
57.5563,47.7190
57.5754,47.8147
57.6296,47.8958
57.7107,47.9500
57.8063,47.9690
58.5063,47.9690
58.6020,47.9500
58.6831,47.8958
58.7373,47.8147
58.7563,47.7190
Z" /> 
</g>
<g style="fill:none; 
stroke:#4D7FC4; stroke-width:1.2000; stroke-opacity:1; 
stroke-linecap:round; stroke-linejoin:round;">
<path d="M56.1563 46.8190
L56.1563 47.3690
" />
</g>
<g style="fill:#4D7FC4; fill-opacity:1.0000; stroke:none;">
<circle cx="15.3556" cy="43.0820" r="0.2286" /> 
<circle cx="7.7433" cy="15.3660" r="0.2286" /> 
<circle cx="7.7433" cy="28.0566" r="0.2286" /> 
<circle cx="65.4094" cy="25.6730" r="0.2286" /> 
<circle cx="8.4303" cy="34.1566" r="0.2286" /> 
<circle cx="69.6024" cy="40.6180" r="0.2286" /> 
<circle cx="59.5533" cy="42.3950" r="0.2286" /> 
<circle cx="22.7593" cy="7.7560" r="0.2286" /> 
<circle cx="69.1833" cy="37.2250" r="0.2286" /> 
<circle cx="54.7538" cy="8.4430" r="0.2286" /> 
<circle cx="60.8538" cy="7.7560" r="0.2286" /> 
<circle cx="16.6593" cy="8.4430" r="0.2286" /> 
<circle cx="53.4534" cy="43.0820" r="0.2286" /> 
<circle cx="21.4556" cy="42.3950" r="0.2286" /> 
<circle cx="66.4293" cy="29.8640" r="0.2286" /> 
<circle cx="8.4303" cy="21.4660" r="0.2286" /> 
<circle cx="61.0933" cy="10.6870" r="0.2286" /> 
<circle cx="10.6743" cy="15.1320" r="0.2286" /> 
<circle cx="10.6743" cy="27.8320" r="0.2286" /> 
<circle cx="62.3148" cy="40.1510" r="0.2286" /> 
<circle cx="53.2193" cy="40.1510" r="0.2286" /> 
<circle cx="22.9933" cy="10.6870" r="0.2286" /> 
<circle cx="15.1193" cy="40.1510" r="0.2286" /> 
<circle cx="12.7913" cy="15.1320" r="0.2286" /> 
<circle cx="64.9034" cy="39.6681" r="0.2286" /> 
<circle cx="64.5224" cy="33.8051" r="0.2286" /> 
<circle cx="22.9933" cy="12.8041" r="0.2286" /> 
<circle cx="12.7913" cy="27.8320" r="0.2286" /> 
<circle cx="61.0933" cy="12.8041" r="0.2286" /> 
<circle cx="15.1193" cy="38.0341" r="0.2286" /> 
<circle cx="53.2193" cy="38.0341" r="0.2286" /> 
</g>
<g style="fill:none; 
stroke:#4D7FC4; stroke-width:0.1270; stroke-opacity:1; 
stroke-linecap:round; stroke-linejoin:round;">
<path d="M13.5534 40.1090
L10.7164 37.2721
" />
<path d="M22.9933 10.6870
L61.0933 10.6870
" />
<path d="M10.6743 37.2721
L10.6743 27.8320
" />
<path d="M10.6743 15.1320
L10.6743 12.9310
" />
<path d="M15.1193 40.1510
L13.5534 40.1510
" />
<path d="M10.6743 15.1320
L10.6743 27.8320
" />
<path d="M12.9184 10.6870
L22.9933 10.6870
" />
<path d="M10.6743 12.9310
L12.9184 10.6870
" />
<path d="M62.3148 40.1510
L15.1193 40.1510
" />
<path d="M64.9034 39.6681
L64.5224 39.2871
" />
<path d="M13.4683 38.0341
L12.7063 37.2721
" />
<path d="M64.5224 38.0341
L53.2193 38.0341
" />
<path d="M53.2193 38.0341
L15.1193 38.0341
" />
<path d="M13.6168 12.8245
L12.8118 13.6296
" />
<path d="M12.7913 13.6296
L12.7913 15.1320
" />
<path d="M61.0933 12.8041
L22.9933 12.8041
" />
<path d="M22.9933 12.8041
L13.6168 12.8041
" />
<path d="M12.7913 27.8320
L12.7913 15.1320
" />
<path d="M12.7913 37.2721
L12.7913 27.8320
" />
<path d="M64.5224 39.2871
L64.5224 33.8051
" />
<path d="M15.1193 38.0341
L13.4683 38.0341
" />
<path style="fill:#4D7FC4; fill-opacity:1.0000; stroke:none;fill-rule:evenodd;"
d="M 0.2638,0.2392
0.2181,0.2920
0.2068,0.3435
0.2068,50.4945
0.2265,50.5616
0.2793,50.6073
0.3308,50.6185
75.8819,50.6185
75.9489,50.5989
75.9946,50.5461
76.0058,50.4945
76.0058,45.6210
72.9269,45.6210
72.9269,45.8571
72.9268,45.8571
72.8960,46.0911
72.8350,46.3190
72.7446,46.5371
72.7446,46.5371
72.6737,46.6600
72.6266,46.7415
72.6266,46.7415
72.6266,46.7415
72.4829,46.9287
72.4829,46.9288
72.3161,47.0956
72.3160,47.0956
72.2060,47.1801
72.1288,47.2393
71.9974,47.3152
71.9244,47.3573
71.9244,47.3573
71.9244,47.3573
71.7063,47.4477
71.4784,47.5087
71.2444,47.5395
71.2444,47.5395
71.0083,47.5395
71.0083,47.5395
70.7743,47.5087
70.5464,47.4477
70.3283,47.3573
70.1239,47.2393
69.9367,47.0956
69.7698,46.9287
69.6261,46.7415
69.5081,46.5371
69.4592,46.4190
59.2569,46.4190
59.2569,47.7691
59.2568,47.7691
59.2463,47.8718
59.2463,47.8718
59.1912,48.0384
59.1912,48.0384
59.0991,48.1877
58.9750,48.3118
58.8257,48.4039
58.6591,48.4590
58.5564,48.4695
57.7563,48.4695
57.7563,48.4695
57.7563,48.4695
57.7000,48.4638
57.6536,48.4590
57.4870,48.4039
57.3377,48.3118
57.2136,48.1877
57.1738,48.1231
57.1218,48.0763
57.0529,48.0651
56.9888,48.0930
56.9806,48.1005
56.8730,48.2081
56.7329,48.3099
56.5786,48.3885
56.4139,48.4420
56.4139,48.4420
56.4064,48.4432
56.4063,48.4432
56.4063,47.3744
56.3866,47.3941
56.3011,47.4435
56.2057,47.4690
56.1070,47.4690
56.0116,47.4435
55.9261,47.3941
55.9063,47.3744
55.9063,48.4432
55.8988,48.4420
55.7341,48.3885
55.5798,48.3099
55.4397,48.2081
55.3173,48.0857
55.2155,47.9456
55.1369,47.7913
55.0834,47.6266
55.0563,47.4556
55.0563,47.3440
55.8760,47.3440
55.8563,47.3243
55.8069,47.2388
55.7813,47.1434
55.7813,47.0447
55.8069,46.9493
55.8563,46.8638
55.8760,46.8440
55.0563,46.8440
55.0563,46.7325
55.0834,46.5615
55.1183,46.4542
55.1297,46.4190
21.1568,46.4190
21.1568,47.7691
21.1568,47.7691
21.1463,47.8718
21.1463,47.8718
21.0912,48.0384
21.0912,48.0384
20.9991,48.1877
20.8750,48.3118
20.7257,48.4039
20.5591,48.4590
20.4564,48.4695
19.6563,48.4695
19.6563,48.4695
19.6563,48.4695
19.6000,48.4638
19.5536,48.4590
19.3870,48.4039
19.2377,48.3118
19.1136,48.1877
19.0738,48.1231
19.0218,48.0763
18.9529,48.0651
18.8888,48.0930
18.8806,48.1005
18.7730,48.2081
18.6329,48.3099
18.4786,48.3885
18.3139,48.4420
18.3139,48.4420
18.3064,48.4432
18.3063,48.4432
18.3063,47.3744
18.2866,47.3941
18.2011,47.4435
18.1057,47.4690
18.0070,47.4690
17.9116,47.4435
17.8261,47.3941
17.8063,47.3744
17.8063,48.4432
17.7988,48.4420
17.6341,48.3885
17.4798,48.3099
17.3397,48.2081
17.2173,48.0857
17.1155,47.9456
17.0369,47.7913
16.9834,47.6266
16.9564,47.4556
16.9564,47.3440
17.7760,47.3440
17.7563,47.3243
17.7069,47.2388
17.6813,47.1434
17.6813,47.0447
17.7069,46.9493
17.7563,46.8638
17.7760,46.8440
16.9564,46.8440
16.9564,46.7325
16.9834,46.5615
17.0369,46.3968
17.1155,46.2425
17.2173,46.1024
17.3397,45.9800
17.4798,45.8782
17.6341,45.7996
17.7947,45.7475
17.8063,45.7550
17.8063,46.8137
17.8261,46.7940
17.9116,46.7446
18.0070,46.7190
18.1057,46.7190
18.2011,46.7446
18.2866,46.7940
18.3063,46.8137
18.3063,45.7449
18.3064,45.7449
18.3139,45.7461
18.3139,45.7461
18.4786,45.7996
18.6329,45.8782
18.7729,45.9800
18.8806,46.0876
18.9419,46.1211
19.0116,46.1161
19.0675,46.0742
19.0738,46.0650
19.1136,46.0004
19.2377,45.8763
19.3870,45.7842
19.5536,45.7291
19.5536,45.7291
19.6563,45.7186
20.4564,45.7186
20.4564,45.7186
20.5591,45.7291
20.5591,45.7291
20.7257,45.7842
20.7257,45.7842
20.8750,45.8763
20.9991,46.0004
21.0912,46.1497
21.0912,46.1497
21.1463,46.3163
21.1463,46.3163
21.1463,46.3163
21.1568,46.4190
55.1297,46.4190
55.1369,46.3968
55.2155,46.2425
55.3173,46.1024
55.4397,45.9800
55.5798,45.8782
55.7341,45.7996
55.8988,45.7461
55.8988,45.7461
55.9063,45.7449
55.9063,46.8137
55.9261,46.7940
56.0116,46.7446
56.1070,46.7190
56.2057,46.7190
56.3011,46.7446
56.3866,46.7940
56.4063,46.8137
56.4063,45.7449
56.4064,45.7449
56.4139,45.7461
56.4139,45.7461
56.5786,45.7996
56.7329,45.8782
56.8729,45.9800
56.9806,46.0876
57.0419,46.1211
57.1116,46.1161
57.1675,46.0742
57.1738,46.0650
57.2136,46.0004
57.3377,45.8763
57.4870,45.7842
57.6536,45.7291
57.6536,45.7291
57.7563,45.7186
58.5564,45.7186
58.5564,45.7186
58.6591,45.7291
58.6591,45.7291
58.8257,45.7842
58.8257,45.7842
58.9750,45.8763
59.0991,46.0004
59.1912,46.1497
59.1912,46.1497
59.2463,46.3163
59.2463,46.3163
59.2463,46.3163
59.2569,46.4190
69.4592,46.4190
69.4177,46.3190
69.3567,46.0911
69.3259,45.8571
69.3259,45.6210
6.8868,45.6210
6.8868,45.8571
6.8868,45.8571
6.8560,46.0911
6.7950,46.3190
6.7046,46.5371
6.7046,46.5371
6.6337,46.6600
6.5866,46.7415
6.5866,46.7415
6.5866,46.7415
6.4429,46.9287
6.4429,46.9288
6.2761,47.0956
6.2760,47.0956
6.1660,47.1801
6.0888,47.2393
5.9574,47.3152
5.8844,47.3573
5.8844,47.3573
5.8844,47.3573
5.6663,47.4477
5.4384,47.5087
5.2044,47.5395
5.2044,47.5395
4.9683,47.5395
4.9683,47.5395
4.7343,47.5087
4.5064,47.4477
4.2883,47.3573
4.0839,47.2393
3.8967,47.0956
3.7298,46.9287
3.5861,46.7415
3.4681,46.5371
3.3777,46.3190
3.3167,46.0911
3.2858,45.8571
3.2858,45.6210
3.3167,45.3870
3.3777,45.1591
3.4681,44.9410
3.4681,44.9410
3.4681,44.9410
3.5102,44.8680
3.5861,44.7366
3.7298,44.5494
3.7298,44.5493
3.8966,44.3825
3.8967,44.3825
4.0839,44.2388
4.0839,44.2388
4.0839,44.2388
4.1654,44.1917
4.2883,44.1208
4.2883,44.1208
4.5064,44.0304
4.7343,43.9694
4.9683,43.9386
4.9683,43.9385
4.9683,43.9385
5.2044,43.9385
5.2044,43.9385
5.2044,43.9386
5.4384,43.9694
5.6663,44.0304
5.8844,44.1208
5.8844,44.1208
6.0888,44.2388
6.2760,44.3825
6.2761,44.3825
6.4429,44.5493
6.4429,44.5494
6.5866,44.7366
6.7046,44.9410
6.7046,44.9410
6.7950,45.1591
6.8560,45.3870
6.8868,45.6210
6.8868,45.6210
69.3259,45.6210
69.3259,45.6210
69.3567,45.3870
69.4177,45.1591
69.5081,44.9410
69.5081,44.9410
69.5081,44.9410
69.5502,44.8680
69.6261,44.7366
69.7698,44.5494
69.7698,44.5493
69.9366,44.3825
69.9367,44.3825
70.1239,44.2388
70.1239,44.2388
70.1239,44.2388
70.2054,44.1917
70.3283,44.1208
70.3283,44.1208
70.5464,44.0304
70.7743,43.9694
71.0083,43.9386
71.0083,43.9385
71.0083,43.9385
71.2444,43.9385
71.2444,43.9385
71.2444,43.9386
71.4784,43.9694
71.7063,44.0304
71.9244,44.1208
71.9244,44.1208
72.1288,44.2388
72.3160,44.3825
72.3161,44.3825
72.4829,44.5493
72.4829,44.5494
72.6266,44.7366
72.7446,44.9410
72.7446,44.9410
72.8350,45.1591
72.8960,45.3870
72.9268,45.6210
72.9269,45.6210
76.0058,45.6210
76.0058,39.5962
65.6324,39.5962
65.6324,39.7399
65.6044,39.8807
65.6044,39.8807
65.5495,40.0134
65.5495,40.0134
65.4697,40.1328
65.4697,40.1328
65.3681,40.2344
65.3681,40.2344
65.2487,40.3142
65.2487,40.3142
65.2487,40.3142
65.1160,40.3691
64.9752,40.3971
64.9752,40.3971
64.9752,40.3971
64.8315,40.3971
64.8315,40.3971
64.6907,40.3691
64.5580,40.3142
64.4386,40.2344
64.3370,40.1328
64.3012,40.0792
63.0439,40.0792
63.0439,40.2229
63.0159,40.3637
63.0159,40.3637
62.9610,40.4964
62.9610,40.4964
62.8812,40.6158
62.8812,40.6158
62.7796,40.7174
62.7796,40.7174
62.6602,40.7972
62.6602,40.7972
62.6602,40.7972
62.5275,40.8521
62.3867,40.8801
62.3867,40.8802
62.3867,40.8802
62.2430,40.8802
62.2430,40.8801
62.1022,40.8521
61.9695,40.7972
61.9695,40.7972
61.8779,40.7359
61.8112,40.7151
61.8090,40.7150
53.7252,40.7150
53.6582,40.7347
53.6563,40.7359
53.5647,40.7972
53.5647,40.7972
53.5647,40.7972
53.4320,40.8521
53.2912,40.8801
53.2912,40.8802
53.2912,40.8802
53.1475,40.8802
53.1475,40.8801
53.0067,40.8521
52.8740,40.7972
52.8740,40.7972
52.7824,40.7359
52.7157,40.7151
52.7135,40.7150
15.6252,40.7150
15.5582,40.7347
15.5563,40.7359
15.4647,40.7972
15.4647,40.7972
15.4647,40.7972
15.3320,40.8521
15.1912,40.8801
15.1912,40.8802
15.1912,40.8802
15.0475,40.8802
15.0475,40.8801
14.9067,40.8521
14.7740,40.7972
14.7740,40.7972
14.6824,40.7359
14.6157,40.7151
14.6135,40.7150
13.4791,40.7150
13.4791,40.7150
13.3357,40.6766
13.2070,40.6024
13.1020,40.4974
13.0528,40.4121
13.0331,40.3864
10.4390,37.7923
10.4133,37.7726
10.3280,37.7234
10.2230,37.6184
10.1488,37.4897
10.1104,37.3463
10.1104,32.3690
5.1068,32.3690
5.1068,33.1691
5.1068,33.1691
5.0964,33.2718
5.0963,33.2718
5.0737,33.3403
5.0412,33.4384
4.9491,33.5877
4.8250,33.7118
4.6757,33.8039
4.5091,33.8590
4.4064,33.8695
3.0563,33.8695
2.9536,33.8590
2.7870,33.8039
2.6377,33.7118
2.5136,33.5877
2.4215,33.4384
2.3664,33.2718
2.3558,33.1691
2.3559,32.3690
2.3664,32.2663
2.4215,32.0997
2.5136,31.9504
2.6377,31.8263
2.6377,31.8263
2.7023,31.7865
2.7491,31.7345
2.7603,31.6656
2.7324,31.6015
2.7249,31.5932
2.6173,31.4856
2.5155,31.3456
2.4369,31.1913
2.3834,31.0266
2.3822,31.0191
3.4510,31.0191
3.4313,30.9993
3.3819,30.9138
3.3563,30.8184
3.3563,30.7197
3.3819,30.6243
3.4313,30.5388
3.4510,30.5191
2.3822,30.5191
2.3822,30.5190
2.3834,30.5115
2.4369,30.3468
2.5155,30.1925
2.6173,30.0524
2.7397,29.9300
2.8798,29.8282
3.0341,29.7496
3.1988,29.6961
3.3698,29.6690
3.4813,29.6690
3.4813,30.4887
3.5011,30.4690
3.5866,30.4196
3.6820,30.3941
3.7807,30.3941
3.8761,30.4196
3.9616,30.4690
3.9813,30.4887
3.9813,29.6690
4.0929,29.6690
4.2639,29.6961
4.4286,29.7496
4.5829,29.8282
4.7230,29.9300
4.8454,30.0524
4.9472,30.1925
5.0258,30.3468
5.0793,30.5115
5.0805,30.5190
5.0805,30.5191
4.0117,30.5191
4.0314,30.5388
4.0808,30.6243
4.1063,30.7197
4.1063,30.8184
4.0808,30.9138
4.0314,30.9993
4.0117,31.0191
5.0805,31.0191
5.0793,31.0266
5.0258,31.1913
4.9472,31.3456
4.8454,31.4857
4.7378,31.5932
4.7043,31.6546
4.7093,31.7243
4.7512,31.7802
4.7604,31.7865
4.8250,31.8263
4.9491,31.9504
5.0412,32.0997
5.0412,32.0997
5.0963,32.2663
5.0963,32.2663
5.0964,32.2663
5.1068,32.3690
10.1104,32.3690
10.1104,28.3379
10.0907,28.2709
10.0895,28.2690
10.0282,28.1774
10.0282,28.1774
10.0282,28.1774
9.9733,28.0447
9.9452,27.9039
9.9452,27.7602
9.9452,27.7602
9.9453,27.7602
9.9733,27.6194
9.9733,27.6194
10.0282,27.4867
10.0282,27.4867
10.0282,27.4867
10.0895,27.3951
10.1103,27.3284
10.1104,27.3262
10.1104,19.6690
5.1068,19.6690
5.1068,20.4691
5.1068,20.4691
5.0964,20.5718
5.0963,20.5718
5.0786,20.6254
5.0412,20.7384
4.9491,20.8877
4.8250,21.0118
4.6757,21.1039
4.5091,21.1590
4.4064,21.1695
3.0563,21.1695
2.9536,21.1590
2.7870,21.1039
2.6377,21.0118
2.5136,20.8877
2.4215,20.7384
2.3664,20.5718
2.3558,20.4691
2.3559,19.6690
2.3664,19.5663
2.4215,19.3997
2.5136,19.2504
2.6377,19.1263
2.6377,19.1263
2.7023,19.0865
2.7491,19.0345
2.7603,18.9656
2.7324,18.9015
2.7249,18.8932
2.6173,18.7856
2.5155,18.6456
2.4369,18.4913
2.3834,18.3266
2.3822,18.3191
3.4510,18.3191
3.4313,18.2993
3.3819,18.2138
3.3563,18.1184
3.3563,18.0197
3.3819,17.9243
3.4313,17.8388
3.4510,17.8191
2.3822,17.8191
2.3822,17.8190
2.3834,17.8115
2.4369,17.6468
2.5155,17.4925
2.6173,17.3524
2.7397,17.2300
2.8798,17.1282
3.0341,17.0496
3.1988,16.9961
3.3698,16.9690
3.4813,16.9690
3.4813,17.7887
3.5011,17.7690
3.5866,17.7196
3.6820,17.6941
3.7807,17.6941
3.8761,17.7196
3.9616,17.7690
3.9813,17.7887
3.9813,16.9690
4.0929,16.9690
4.2639,16.9961
4.4286,17.0496
4.5829,17.1282
4.7230,17.2300
4.8454,17.3524
4.9472,17.4925
5.0258,17.6468
5.0793,17.8115
5.0805,17.8190
5.0805,17.8191
4.0117,17.8191
4.0314,17.8388
4.0808,17.9243
4.1063,18.0197
4.1063,18.1184
4.0808,18.2138
4.0314,18.2993
4.0117,18.3191
5.0805,18.3191
5.0793,18.3266
5.0258,18.4913
4.9472,18.6456
4.8454,18.7857
4.7378,18.8932
4.7043,18.9546
4.7093,19.0243
4.7512,19.0802
4.7604,19.0865
4.8250,19.1263
4.9491,19.2504
5.0412,19.3997
5.0412,19.3997
5.0963,19.5663
5.0963,19.5663
5.0964,19.5663
5.1068,19.6690
10.1104,19.6690
10.1104,15.6379
10.0907,15.5709
10.0895,15.5690
10.0282,15.4774
10.0282,15.4774
10.0282,15.4774
9.9733,15.3447
9.9452,15.2039
9.9452,15.0602
9.9452,15.0602
9.9453,15.0602
9.9733,14.9194
9.9733,14.9194
10.0282,14.7867
10.0282,14.7867
10.0282,14.7867
10.0895,14.6951
10.1103,14.6284
10.1104,14.6262
10.1104,12.8568
10.1104,12.8568
10.1488,12.7134
10.2230,12.5847
10.3280,12.4797
10.3280,12.4797
10.3324,12.4754
10.3324,12.4754
12.4600,10.3478
12.4600,10.3478
12.5720,10.2357
12.5720,10.2357
12.7007,10.1615
12.8441,10.1230
12.8441,10.1230
22.4875,10.1230
22.5545,10.1034
22.5564,10.1022
22.6480,10.0409
22.6480,10.0409
22.7807,9.9860
22.7807,9.9860
22.9215,9.9580
22.9215,9.9580
23.0652,9.9580
23.0652,9.9580
23.2060,9.9860
23.2060,9.9860
23.3387,10.0409
23.3387,10.0409
23.4303,10.1022
23.4970,10.1230
23.4992,10.1230
60.5875,10.1230
60.6545,10.1034
60.6564,10.1022
60.7480,10.0409
60.7480,10.0409
60.8807,9.9860
60.8807,9.9860
61.0215,9.9580
61.0215,9.9580
61.1652,9.9580
61.1652,9.9580
61.3060,9.9860
61.3060,9.9860
61.4387,10.0409
61.4387,10.0409
61.5581,10.1207
61.5581,10.1207
61.6597,10.2223
61.6597,10.2223
61.7395,10.3417
61.7395,10.3417
61.7944,10.4744
61.7944,10.4744
61.8224,10.6152
61.8224,10.7589
61.7944,10.8997
61.7944,10.8997
61.7395,11.0324
61.7395,11.0324
61.6597,11.1518
61.6597,11.1518
61.5581,11.2534
61.5581,11.2534
61.4387,11.3332
61.4387,11.3332
61.4387,11.3332
61.3060,11.3881
61.1652,11.4161
61.1652,11.4162
61.1652,11.4162
61.0215,11.4162
61.0215,11.4161
60.8807,11.3881
60.7480,11.3332
60.7480,11.3332
60.6564,11.2719
60.5897,11.2511
60.5875,11.2510
23.4992,11.2510
23.4322,11.2707
23.4303,11.2719
23.3387,11.3332
23.3387,11.3332
23.3387,11.3332
23.2060,11.3881
23.0652,11.4161
23.0652,11.4162
23.0652,11.4162
22.9215,11.4162
22.9215,11.4161
22.7807,11.3881
22.6480,11.3332
22.6480,11.3332
22.5564,11.2719
22.4897,11.2511
22.4875,11.2510
13.2033,11.2510
13.1363,11.2707
13.1156,11.2874
11.2747,13.1283
11.2412,13.1897
11.2383,13.2160
11.2383,14.6262
11.2580,14.6932
11.2592,14.6951
11.3205,14.7867
11.3205,14.7867
11.3754,14.9194
11.3754,14.9194
11.4034,15.0602
11.4034,15.2039
11.3754,15.3447
11.3754,15.3447
11.3205,15.4774
11.3205,15.4774
11.2592,15.5690
11.2384,15.6357
11.2383,15.6379
11.2383,27.3262
11.2580,27.3932
11.2592,27.3951
11.3205,27.4867
11.3205,27.4867
11.3754,27.6194
11.3754,27.6194
11.4034,27.7602
11.4034,27.9039
11.3754,28.0447
11.3754,28.0447
11.3205,28.1774
11.3205,28.1774
11.2592,28.2690
11.2384,28.3357
11.2383,28.3379
11.2383,36.9451
11.2580,37.0121
11.2747,37.0328
13.7926,39.5507
13.8540,39.5842
13.8803,39.5870
14.6135,39.5870
14.6805,39.5674
14.6824,39.5662
14.7740,39.5049
14.7740,39.5049
14.9067,39.4500
14.9067,39.4500
15.0475,39.4219
15.0475,39.4219
15.1912,39.4219
15.1912,39.4219
15.3320,39.4500
15.3320,39.4500
15.4647,39.5049
15.4647,39.5049
15.5563,39.5662
15.6230,39.5870
15.6252,39.5870
52.7135,39.5870
52.7805,39.5674
52.7824,39.5662
52.8740,39.5049
52.8740,39.5049
53.0067,39.4500
53.0067,39.4500
53.1475,39.4219
53.1475,39.4219
53.2912,39.4219
53.2912,39.4219
53.4320,39.4500
53.4320,39.4500
53.5647,39.5049
53.5647,39.5049
53.6563,39.5662
53.7230,39.5870
53.7252,39.5870
61.8090,39.5870
61.8760,39.5674
61.8779,39.5662
61.9695,39.5049
61.9695,39.5049
62.1022,39.4500
62.1022,39.4500
62.2430,39.4219
62.2430,39.4219
62.3867,39.4219
62.3867,39.4219
62.5275,39.4500
62.5275,39.4500
62.6602,39.5049
62.6602,39.5049
62.7796,39.5847
62.7796,39.5847
62.8812,39.6863
62.8812,39.6863
62.9610,39.8057
62.9610,39.8057
63.0159,39.9384
63.0159,39.9384
63.0439,40.0792
64.3012,40.0792
64.2572,40.0134
64.2023,39.8807
64.1808,39.7726
64.1754,39.7609
64.1746,39.7516
64.1633,39.7343
64.1572,39.7209
64.1524,39.7147
64.0710,39.6334
64.0216,39.5477
63.9968,39.5047
63.9583,39.3613
63.9583,39.2128
63.9583,38.7220
63.9387,38.6550
63.8859,38.6093
63.8344,38.5981
53.7252,38.5981
53.6582,38.6177
53.6563,38.6189
53.5647,38.6802
53.5647,38.6802
53.5647,38.6802
53.4320,38.7351
53.2912,38.7631
53.2912,38.7631
53.2912,38.7631
53.1475,38.7631
53.1475,38.7631
53.0067,38.7351
52.8740,38.6802
52.8363,38.6550
52.7824,38.6189
52.7157,38.5981
52.7135,38.5981
15.6252,38.5981
15.5582,38.6177
15.5563,38.6189
15.4647,38.6802
15.4647,38.6802
15.4647,38.6802
15.3320,38.7351
15.1912,38.7631
15.1912,38.7631
15.1912,38.7631
15.0475,38.7631
15.0475,38.7631
14.9067,38.7351
14.7740,38.6802
14.7363,38.6550
14.6824,38.6189
14.6157,38.5981
14.6135,38.5981
13.3941,38.5981
13.3941,38.5981
13.2507,38.5596
13.2245,38.5445
13.1220,38.4854
13.0170,38.3804
13.0170,38.3804
13.0068,38.3701
13.0068,38.3701
12.2550,37.6184
12.1808,37.4897
12.1423,37.3463
12.1423,37.1978
12.1808,37.0544
12.2107,37.0025
12.2273,36.9405
12.2273,28.3379
12.2077,28.2709
12.2065,28.2690
12.1452,28.1774
12.1452,28.1774
12.1452,28.1774
12.0903,28.0447
12.0622,27.9039
12.0622,27.7602
12.0622,27.7602
12.0623,27.7602
12.0903,27.6194
12.0903,27.6194
12.1452,27.4867
12.1452,27.4867
12.1452,27.4867
12.2065,27.3951
12.2273,27.3284
12.2273,27.3262
12.2273,15.6379
12.2077,15.5709
12.2065,15.5690
12.1452,15.4774
12.1452,15.4774
12.1452,15.4774
12.0903,15.3447
12.0622,15.2039
12.0622,15.0602
12.0622,15.0602
12.0623,15.0602
12.0903,14.9194
12.0903,14.9194
12.1452,14.7867
12.1452,14.7867
12.1452,14.7867
12.2065,14.6951
12.2273,14.6284
12.2273,14.6262
12.2273,13.5553
12.2273,13.5553
12.2658,13.4119
12.3400,13.2832
12.4450,13.1782
12.4686,13.1647
12.4794,13.1584
12.5051,13.1387
13.1260,12.5178
13.1457,12.4921
13.1655,12.4577
13.2705,12.3527
13.3992,12.2785
13.5426,12.2401
13.5426,12.2401
22.4875,12.2401
22.5545,12.2204
22.5564,12.2192
22.6480,12.1579
22.6480,12.1579
22.7807,12.1030
22.7807,12.1030
22.9215,12.0749
22.9215,12.0749
23.0652,12.0749
23.0652,12.0749
23.2060,12.1030
23.2060,12.1030
23.3387,12.1579
23.3387,12.1579
23.4303,12.2192
23.4970,12.2400
23.4992,12.2401
60.5875,12.2401
60.6545,12.2204
60.6564,12.2192
60.7480,12.1579
60.7480,12.1579
60.8807,12.1030
60.8807,12.1030
61.0215,12.0749
61.0215,12.0749
61.1652,12.0749
61.1652,12.0749
61.3060,12.1030
61.3060,12.1030
61.4387,12.1579
61.4387,12.1579
61.5581,12.2377
61.5581,12.2377
61.6597,12.3393
61.6597,12.3393
61.7395,12.4587
61.7395,12.4587
61.7944,12.5914
61.7944,12.5914
61.8224,12.7322
61.8224,12.8759
61.7944,13.0167
61.7944,13.0167
61.7395,13.1494
61.7395,13.1494
61.6597,13.2688
61.6597,13.2688
61.5581,13.3704
61.5581,13.3704
61.4387,13.4502
61.4387,13.4502
61.4387,13.4502
61.3060,13.5051
61.1652,13.5331
61.1652,13.5331
61.1652,13.5331
61.0215,13.5331
61.0215,13.5331
60.8807,13.5051
60.7480,13.4502
60.6906,13.4119
60.6564,13.3889
60.5897,13.3681
60.5875,13.3681
23.4992,13.3681
23.4322,13.3877
23.4303,13.3889
23.3387,13.4502
23.3387,13.4502
23.3387,13.4502
23.2060,13.5051
23.0652,13.5331
23.0652,13.5331
23.0652,13.5331
22.9215,13.5331
22.9215,13.5331
22.7807,13.5051
22.6480,13.4502
22.5906,13.4119
22.5564,13.3889
22.4897,13.3681
22.4875,13.3681
13.9223,13.3681
13.8553,13.3877
13.8346,13.4044
13.3917,13.8473
13.3582,13.9087
13.3553,13.9350
13.3553,14.6262
13.3750,14.6932
13.3762,14.6951
13.4375,14.7867
13.4375,14.7867
13.4924,14.9194
13.4924,14.9194
13.5204,15.0602
13.5204,15.2039
13.4924,15.3447
13.4924,15.3447
13.4375,15.4774
13.4375,15.4774
13.3762,15.5690
13.3554,15.6357
13.3553,15.6379
13.3553,27.3262
13.3750,27.3932
13.3762,27.3951
13.4375,27.4867
13.4375,27.4867
13.4924,27.6194
13.4924,27.6194
13.5204,27.7602
13.5204,27.9039
13.4924,28.0447
13.4924,28.0447
13.4375,28.1774
13.4375,28.1774
13.3762,28.2690
13.3554,28.3357
13.3553,28.3379
13.3553,37.0721
13.3750,37.1391
13.3917,37.1598
13.6656,37.4337
13.7270,37.4672
13.7533,37.4701
14.6135,37.4701
14.6805,37.4504
14.6824,37.4492
14.7740,37.3879
14.7740,37.3879
14.9067,37.3330
14.9067,37.3330
15.0475,37.3049
15.0475,37.3049
15.1912,37.3049
15.1912,37.3049
15.3320,37.3330
15.3320,37.3330
15.4647,37.3879
15.4647,37.3879
15.5563,37.4492
15.6230,37.4700
15.6252,37.4701
52.7135,37.4701
52.7805,37.4504
52.7824,37.4492
52.8740,37.3879
52.8740,37.3879
53.0067,37.3330
53.0067,37.3330
53.1475,37.3049
53.1475,37.3049
53.2912,37.3049
53.2912,37.3049
53.4320,37.3330
53.4320,37.3330
53.5647,37.3879
53.5647,37.3879
53.6563,37.4492
53.7230,37.4700
53.7252,37.4701
63.8344,37.4701
63.9014,37.4504
63.9471,37.3976
63.9583,37.3460
63.9583,34.3109
63.9387,34.2439
63.9375,34.2420
63.8762,34.1504
63.8762,34.1504
63.8762,34.1504
63.8213,34.0177
63.7933,33.8769
63.7933,33.7332
63.7933,33.7332
63.7933,33.7332
63.8213,33.5924
63.8213,33.5924
63.8762,33.4597
63.8762,33.4597
63.8762,33.4597
63.9560,33.3403
63.9560,33.3403
64.0576,33.2387
64.0576,33.2387
64.1770,33.1589
64.1770,33.1589
64.3097,33.1040
64.3097,33.1040
64.4505,33.0759
64.4505,33.0759
64.5942,33.0759
64.5942,33.0759
64.7350,33.1040
64.7350,33.1040
64.8677,33.1589
64.8677,33.1589
64.9871,33.2387
64.9871,33.2387
65.0887,33.3403
65.0887,33.3403
65.1685,33.4597
65.1685,33.4597
65.2234,33.5924
65.2234,33.5924
65.2514,33.7332
65.2514,33.8769
65.2234,34.0177
65.2234,34.0177
65.1685,34.1504
65.1685,34.1504
65.1072,34.2420
65.0864,34.3087
65.0863,34.3109
65.0863,38.8718
65.1060,38.9389
65.1588,38.9846
65.1629,38.9864
65.2487,39.0219
65.2487,39.0219
65.3681,39.1017
65.3681,39.1017
65.4697,39.2033
65.4697,39.2033
65.5495,39.3227
65.5495,39.3227
65.6044,39.4554
65.6044,39.4554
65.6324,39.5962
76.0058,39.5962
76.0058,38.0321
73.6819,38.0321
73.6569,38.1578
73.6569,38.1578
73.6078,38.2762
73.6078,38.2762
73.5366,38.3827
73.5366,38.3827
73.4460,38.4733
73.4460,38.4733
73.3395,38.5445
73.3395,38.5445
73.2211,38.5936
73.2211,38.5936
73.2211,38.5936
73.0954,38.6185
73.0954,38.6185
72.9673,38.6185
72.8643,38.5981
72.8416,38.5936
72.7232,38.5445
72.6167,38.4733
72.5261,38.3827
72.4549,38.2762
72.4058,38.1578
72.3808,38.0321
72.3808,37.9040
72.3808,37.9040
72.4058,37.7783
72.4058,37.7783
72.4058,37.7783
72.4549,37.6599
72.4549,37.6599
72.4549,37.6599
72.5261,37.5534
72.5261,37.5534
72.6167,37.4628
72.6167,37.4628
72.7232,37.3916
72.7232,37.3916
72.8416,37.3425
72.8416,37.3425
72.9673,37.3175
72.9673,37.3175
73.0954,37.3175
73.0954,37.3175
73.2211,37.3425
73.2211,37.3425
73.3395,37.3916
73.3395,37.3916
73.4460,37.4628
73.4460,37.4628
73.5366,37.5534
73.5366,37.5534
73.6078,37.6599
73.6078,37.6599
73.6569,37.7783
73.6569,37.7783
73.6818,37.9040
73.6818,37.9040
73.6818,38.0321
73.6818,38.0321
73.6819,38.0321
76.0058,38.0321
76.0058,35.0321
73.6819,35.0321
73.6569,35.1578
73.6569,35.1578
73.6078,35.2762
73.6078,35.2762
73.5366,35.3827
73.5366,35.3827
73.4460,35.4733
73.4460,35.4733
73.3395,35.5445
73.3395,35.5445
73.3395,35.5445
73.2211,35.5936
73.2211,35.5936
73.2211,35.5936
73.0954,35.6185
73.0954,35.6185
72.9673,35.6185
72.8827,35.6017
72.8416,35.5936
72.7232,35.5445
72.6167,35.4733
72.5261,35.3827
72.4549,35.2762
72.4058,35.1578
72.3808,35.0321
72.3808,34.9040
72.3808,34.9040
72.4058,34.7783
72.4058,34.7783
72.4058,34.7783
72.4549,34.6599
72.4549,34.6599
72.4549,34.6599
72.5261,34.5534
72.5261,34.5534
72.6167,34.4628
72.6167,34.4628
72.7232,34.3916
72.7232,34.3916
72.8416,34.3425
72.8416,34.3425
72.9673,34.3175
72.9673,34.3175
73.0954,34.3175
73.0954,34.3175
73.2211,34.3425
73.2211,34.3425
73.3395,34.3916
73.3395,34.3916
73.4460,34.4628
73.4460,34.4628
73.5366,34.5534
73.5366,34.5534
73.6078,34.6599
73.6078,34.6599
73.6569,34.7783
73.6569,34.7783
73.6818,34.9040
73.6818,34.9040
73.6818,35.0321
73.6818,35.0321
73.6819,35.0321
76.0058,35.0321
76.0058,29.4890
74.2062,29.4890
73.4033,29.4890
73.4206,29.4990
73.4764,29.5548
73.5159,29.6233
73.5363,29.6996
73.5363,29.7785
73.5159,29.8548
73.4764,29.9233
73.4206,29.9791
73.4033,29.9890
74.2062,29.9890
74.1979,30.0307
74.1979,30.0307
74.1225,30.2127
74.1225,30.2127
74.0131,30.3765
74.0131,30.3765
73.8738,30.5158
73.8738,30.5158
73.7100,30.6252
73.7100,30.6252
73.5280,30.7006
73.5280,30.7006
73.3348,30.7390
73.3348,30.7390
73.0863,30.7390
73.0863,30.0390
72.5863,30.0390
72.5863,30.7390
72.3379,30.7390
72.3379,30.7390
72.1447,30.7006
72.1447,30.7006
71.9627,30.6252
71.9627,30.6252
71.7989,30.5158
71.7989,30.5158
71.6596,30.3765
71.6596,30.3765
71.5502,30.2127
71.5502,30.2127
71.4748,30.0307
71.4748,30.0307
71.4665,29.9890
72.2694,29.9890
72.2521,29.9791
72.1963,29.9233
72.1568,29.8548
72.1363,29.7785
72.1363,29.6996
72.1568,29.6233
72.1963,29.5548
72.2521,29.4990
72.2694,29.4890
71.4665,29.4890
70.1562,29.4890
69.3533,29.4890
69.3706,29.4990
69.4264,29.5548
69.4659,29.6233
69.4864,29.6996
69.4864,29.7785
69.4659,29.8548
69.4264,29.9233
69.3706,29.9791
69.3533,29.9890
70.1562,29.9890
70.1479,30.0307
70.1479,30.0307
70.0725,30.2127
70.0725,30.2127
69.9631,30.3765
69.9631,30.3765
69.8238,30.5158
69.8238,30.5158
69.6600,30.6252
69.6600,30.6252
69.4780,30.7006
69.4780,30.7006
69.2848,30.7390
69.2848,30.7390
68.8863,30.7390
68.8863,30.0390
68.3863,30.0390
68.3863,30.7390
67.9879,30.7390
67.9879,30.7390
67.7947,30.7006
67.7947,30.7006
67.6127,30.6252
67.6127,30.6252
67.4489,30.5158
67.4489,30.5158
67.3096,30.3765
67.3096,30.3765
67.2002,30.2127
67.2002,30.2127
67.1248,30.0307
67.1248,30.0307
67.1165,29.9890
67.9194,29.9890
67.9021,29.9791
67.8463,29.9233
67.8068,29.8548
67.7863,29.7785
67.7863,29.6996
67.8068,29.6233
67.8463,29.5548
67.9021,29.4990
67.9194,29.4890
67.1165,29.4890
67.1248,29.4474
67.1248,29.4474
67.2002,29.2654
67.2002,29.2654
67.3096,29.1016
67.3096,29.1016
67.4489,28.9623
67.4489,28.9623
67.6127,28.8529
67.6127,28.8529
67.7947,28.7775
67.7947,28.7775
67.9879,28.7390
68.3863,28.7390
68.3863,29.4390
68.8863,29.4390
68.8863,28.8311
68.8667,28.7641
68.8519,28.7453
68.8406,28.7335
68.8337,28.7296
68.7358,28.6317
68.6667,28.5119
68.6308,28.3782
68.6308,28.2399
68.6667,28.1062
68.7358,27.9864
68.8337,27.8885
68.8337,27.8885
68.8337,27.8885
68.9535,27.8194
68.9535,27.8194
68.9535,27.8194
69.0872,27.7835
69.2255,27.7835
69.3592,27.8194
69.3592,27.8194
69.4790,27.8885
69.4790,27.8885
69.5769,27.9864
69.5769,27.9864
69.6460,28.1062
69.6460,28.1062
69.6818,28.2399
69.6818,28.3782
69.6460,28.5119
69.6460,28.5119
69.5769,28.6317
69.5769,28.6317
69.5761,28.6325
69.5756,28.6333
69.5719,28.6382
69.5727,28.6387
69.5426,28.6938
69.5476,28.7635
69.5894,28.8195
69.6163,28.8347
69.6600,28.8529
69.6600,28.8529
69.8238,28.9623
69.8238,28.9623
69.9631,29.1016
69.9631,29.1016
70.0725,29.2654
70.0725,29.2654
70.1479,29.4474
70.1479,29.4474
70.1562,29.4890
71.4665,29.4890
71.4748,29.4474
71.4748,29.4474
71.5502,29.2654
71.5502,29.2654
71.6596,29.1016
71.6596,29.1016
71.7989,28.9623
71.7989,28.9623
71.9627,28.8529
71.9627,28.8529
72.1447,28.7775
72.1447,28.7775
72.3379,28.7390
72.5863,28.7390
72.5863,29.4390
73.0863,29.4390
73.0863,28.7390
73.3348,28.7390
73.5280,28.7775
73.5280,28.7775
73.7100,28.8529
73.7100,28.8529
73.8738,28.9623
73.8738,28.9623
74.0131,29.1016
74.0131,29.1016
74.1225,29.2654
74.1225,29.2654
74.1979,29.4474
74.1979,29.4474
74.2062,29.4890
76.0058,29.4890
76.0058,20.8490
74.2062,20.8490
73.4033,20.8490
73.4206,20.8590
73.4764,20.9148
73.5159,20.9833
73.5363,21.0596
73.5363,21.1385
73.5159,21.2148
73.4764,21.2833
73.4206,21.3391
73.4033,21.3490
74.2062,21.3490
74.1979,21.3907
74.1979,21.3907
74.1225,21.5727
74.1225,21.5727
74.0131,21.7365
74.0131,21.7365
73.8738,21.8758
73.8738,21.8758
73.7100,21.9852
73.7100,21.9852
73.5280,22.0606
73.5280,22.0606
73.3348,22.0990
73.3348,22.0990
73.0863,22.0990
73.0863,21.3990
72.5863,21.3990
72.5863,22.0990
72.3379,22.0990
72.3379,22.0990
72.1447,22.0606
72.1447,22.0606
71.9627,21.9852
71.9627,21.9852
71.7989,21.8758
71.7989,21.8758
71.6596,21.7365
71.6596,21.7365
71.5502,21.5727
71.5502,21.5727
71.4748,21.3907
71.4748,21.3907
71.4665,21.3490
72.2694,21.3490
72.2521,21.3391
72.1963,21.2833
72.1568,21.2148
72.1363,21.1385
72.1363,21.0596
72.1568,20.9833
72.1963,20.9148
72.2521,20.8590
72.2694,20.8490
71.4665,20.8490
70.1562,20.8490
69.3533,20.8490
69.3706,20.8590
69.4264,20.9148
69.4659,20.9833
69.4864,21.0596
69.4864,21.1385
69.4659,21.2148
69.4264,21.2833
69.3706,21.3391
69.3533,21.3490
70.1562,21.3490
70.1479,21.3907
70.1479,21.3907
70.0725,21.5727
70.0725,21.5727
69.9631,21.7365
69.9631,21.7365
69.8238,21.8758
69.8238,21.8758
69.6600,21.9852
69.6600,21.9852
69.6163,22.0034
69.5619,22.0472
69.5398,22.1135
69.5571,22.1812
69.5761,22.2056
69.5769,22.2064
69.5769,22.2064
69.6460,22.3262
69.6460,22.3262
69.6818,22.4599
69.6818,22.5982
69.6460,22.7319
69.6460,22.7319
69.5769,22.8517
69.5769,22.8517
69.5769,22.8517
69.4790,22.9496
69.3592,23.0187
69.2255,23.0545
69.2255,23.0545
69.0872,23.0545
69.0872,23.0545
68.9535,23.0187
68.8337,22.9496
68.7358,22.8517
68.6667,22.7319
68.6308,22.5982
68.6308,22.4599
68.6667,22.3262
68.7358,22.2064
68.8337,22.1085
68.8337,22.1085
68.8337,22.1085
68.8378,22.1054
68.8790,22.0489
68.8863,22.0070
68.8863,21.3990
68.3863,21.3990
68.3863,22.0990
67.9879,22.0990
67.9879,22.0990
67.7947,22.0606
67.7947,22.0606
67.6127,21.9852
67.6127,21.9852
67.4489,21.8758
67.4489,21.8758
67.3096,21.7365
67.3096,21.7365
67.2002,21.5727
67.2002,21.5727
67.1248,21.3907
67.1248,21.3907
67.1165,21.3490
67.9194,21.3490
67.9021,21.3391
67.8463,21.2833
67.8068,21.2148
67.7863,21.1385
67.7863,21.0596
67.8068,20.9833
67.8463,20.9148
67.9021,20.8590
67.9194,20.8490
67.1165,20.8490
67.1248,20.8074
67.1248,20.8074
67.2002,20.6254
67.2002,20.6254
67.3096,20.4616
67.3096,20.4616
67.4489,20.3223
67.4489,20.3223
67.6127,20.2129
67.6127,20.2129
67.7947,20.1375
67.7947,20.1375
67.9879,20.0990
68.3863,20.0990
68.3863,20.7990
68.8863,20.7990
68.8863,20.0990
69.2848,20.0990
69.4780,20.1375
69.4780,20.1375
69.6600,20.2129
69.6600,20.2129
69.8238,20.3223
69.8238,20.3223
69.9631,20.4616
69.9631,20.4616
70.0725,20.6254
70.0725,20.6254
70.1479,20.8074
70.1479,20.8074
70.1562,20.8490
71.4665,20.8490
71.4748,20.8074
71.4748,20.8074
71.5502,20.6254
71.5502,20.6254
71.6596,20.4616
71.6596,20.4616
71.7989,20.3223
71.7989,20.3223
71.9627,20.2129
71.9627,20.2129
72.1447,20.1375
72.1447,20.1375
72.3379,20.0990
72.5863,20.0990
72.5863,20.7990
73.0863,20.7990
73.0863,20.0990
73.3348,20.0990
73.5280,20.1375
73.5280,20.1375
73.7100,20.2129
73.7100,20.2129
73.8738,20.3223
73.8738,20.3223
74.0131,20.4616
74.0131,20.4616
74.1225,20.6254
74.1225,20.6254
74.1979,20.8074
74.1979,20.8074
74.2062,20.8490
76.0058,20.8490
76.0058,4.9810
72.9269,4.9810
72.9269,5.2171
72.9268,5.2171
72.8960,5.4511
72.8350,5.6790
72.7446,5.8971
72.7446,5.8971
72.6737,6.0200
72.6266,6.1015
72.6266,6.1015
72.6266,6.1015
72.4829,6.2887
72.4829,6.2888
72.3161,6.4556
72.3160,6.4556
72.1288,6.5993
71.9974,6.6752
71.9244,6.7173
71.9244,6.7173
71.9244,6.7173
71.7063,6.8077
71.4784,6.8687
71.2444,6.8995
71.2444,6.8995
71.0083,6.8995
71.0083,6.8995
70.7743,6.8687
70.5464,6.8077
70.3283,6.7173
70.1239,6.5993
69.9367,6.4556
69.7698,6.2887
69.6261,6.1015
69.5081,5.8971
69.4177,5.6790
69.3567,5.4511
69.3259,5.2171
69.3259,4.9810
69.3567,4.7470
69.4177,4.5191
69.5081,4.3010
69.5081,4.3010
69.5081,4.3010
69.5502,4.2280
69.6261,4.0966
69.7442,3.9427
69.7698,3.9094
69.7698,3.9093
69.9366,3.7425
69.9367,3.7425
70.1239,3.5988
70.1239,3.5988
70.1239,3.5988
70.3053,3.4940
70.3210,3.4850
70.3210,3.4850
70.3210,3.4850
70.3283,3.4808
70.3283,3.4808
70.5464,3.3904
70.5761,3.3825
59.2563,3.3825
59.2563,3.4940
58.4367,3.4940
58.4564,3.5138
58.5058,3.5993
58.5313,3.6947
58.5313,3.7934
58.5058,3.8888
58.4564,3.9743
58.4367,3.9940
59.2563,3.9940
59.2563,4.1056
59.2293,4.2766
59.1758,4.4413
59.0972,4.5956
58.9954,4.7357
58.8730,4.8581
58.7329,4.9599
58.5786,5.0385
58.4139,5.0920
58.4139,5.0920
58.4064,5.0932
58.4063,5.0932
58.4063,4.0244
58.3866,4.0441
58.3011,4.0935
58.2057,4.1190
58.1070,4.1190
58.0116,4.0935
57.9261,4.0441
57.9063,4.0244
57.9063,5.0932
57.8988,5.0920
57.7341,5.0385
57.5798,4.9599
57.4398,4.8581
57.3322,4.7505
57.2708,4.7170
57.2011,4.7220
57.1452,4.7639
57.1389,4.7731
57.0991,4.8377
56.9750,4.9618
56.8257,5.0539
56.6591,5.1090
56.5564,5.1195
55.7563,5.1195
55.7563,5.1195
55.7563,5.1195
55.7000,5.1138
55.6536,5.1090
55.4870,5.0539
55.3377,4.9618
55.2136,4.8377
55.1215,4.6884
55.0664,4.5218
55.0558,4.4191
55.0559,3.7425
55.0559,3.3825
21.1563,3.3825
21.1563,3.4940
20.3367,3.4940
20.3564,3.5138
20.4058,3.5993
20.4313,3.6947
20.4313,3.7934
20.4058,3.8888
20.3564,3.9743
20.3367,3.9940
21.1563,3.9940
21.1563,4.1056
21.1293,4.2766
21.0758,4.4413
20.9972,4.5956
20.8954,4.7357
20.7730,4.8581
20.6329,4.9599
20.4786,5.0385
20.3139,5.0920
20.3139,5.0920
20.3064,5.0932
20.3063,5.0932
20.3063,4.0244
20.2866,4.0441
20.2011,4.0935
20.1057,4.1190
20.0070,4.1190
19.9116,4.0935
19.8261,4.0441
19.8063,4.0244
19.8063,5.0932
19.7988,5.0920
19.6341,5.0385
19.4798,4.9599
19.3398,4.8581
19.2322,4.7505
19.1708,4.7170
19.1011,4.7220
19.0452,4.7639
19.0389,4.7731
18.9991,4.8377
18.8750,4.9618
18.7257,5.0539
18.5591,5.1090
18.4564,5.1195
17.6563,5.1195
17.6563,5.1195
17.6563,5.1195
17.6000,5.1138
17.5536,5.1090
17.3870,5.0539
17.2690,4.9810
6.8868,4.9810
6.8868,5.2171
6.8868,5.2171
6.8560,5.4511
6.7950,5.6790
6.7046,5.8971
6.7046,5.8971
6.6337,6.0200
6.5866,6.1015
6.5866,6.1015
6.5866,6.1015
6.4429,6.2887
6.4429,6.2888
6.2761,6.4556
6.2760,6.4556
6.0888,6.5993
5.9574,6.6752
5.8844,6.7173
5.8844,6.7173
5.8844,6.7173
5.6663,6.8077
5.4384,6.8687
5.2044,6.8995
5.2044,6.8995
4.9683,6.8995
4.9683,6.8995
4.7343,6.8687
4.5064,6.8077
4.2883,6.7173
4.0839,6.5993
3.8967,6.4556
3.7298,6.2887
3.5861,6.1015
3.4681,5.8971
3.3777,5.6790
3.3167,5.4511
3.2858,5.2171
3.2858,4.9810
3.3167,4.7470
3.3777,4.5191
3.4681,4.3010
3.4681,4.3010
3.4681,4.3010
3.5102,4.2280
3.5861,4.0966
3.6799,3.9743
3.7298,3.9094
3.7298,3.9093
3.8966,3.7425
3.8967,3.7425
4.0839,3.5988
4.0839,3.5988
4.0839,3.5988
4.1654,3.5517
4.2883,3.4808
4.2883,3.4808
4.5064,3.3904
4.7343,3.3294
4.9683,3.2986
4.9683,3.2985
4.9683,3.2985
5.2044,3.2985
5.2044,3.2985
5.2044,3.2986
5.4384,3.3294
5.6663,3.3904
5.8844,3.4808
5.8844,3.4808
6.0888,3.5988
6.2760,3.7425
6.2761,3.7425
6.4429,3.9093
6.4429,3.9094
6.5866,4.0966
6.7046,4.3010
6.7046,4.3010
6.7950,4.5191
6.8560,4.7470
6.8868,4.9810
6.8868,4.9810
17.2690,4.9810
17.2377,4.9618
17.1136,4.8377
17.0215,4.6884
16.9664,4.5218
16.9558,4.4191
16.9559,3.0690
16.9664,2.9663
17.0215,2.7997
17.1136,2.6504
17.2377,2.5263
17.3870,2.4342
17.5536,2.3791
17.5536,2.3790
17.6563,2.3685
18.4564,2.3685
18.4564,2.3686
18.5591,2.3790
18.5591,2.3791
18.7257,2.4342
18.7257,2.4342
18.8750,2.5263
18.9991,2.6504
19.0389,2.7150
19.0909,2.7618
19.1598,2.7730
19.2239,2.7451
19.2322,2.7376
19.3397,2.6300
19.4798,2.5282
19.6341,2.4496
19.7988,2.3961
19.7988,2.3961
19.8063,2.3949
19.8063,3.4637
19.8261,3.4440
19.9116,3.3946
20.0070,3.3690
20.1057,3.3690
20.2011,3.3946
20.2866,3.4440
20.3063,3.4637
20.3063,2.3949
20.3064,2.3949
20.3139,2.3961
20.3139,2.3961
20.4786,2.4496
20.6329,2.5282
20.7730,2.6300
20.8954,2.7524
20.9972,2.8925
21.0758,3.0468
21.1293,3.2115
21.1563,3.3825
55.0559,3.3825
55.0559,3.3776
55.0559,3.0690
55.0559,3.0690
55.0664,2.9663
55.0664,2.9663
55.0908,2.8925
55.1215,2.7997
55.2136,2.6504
55.3377,2.5263
55.4870,2.4342
55.6536,2.3791
55.6536,2.3790
55.7563,2.3685
56.5564,2.3685
56.5564,2.3686
56.6591,2.3790
56.6591,2.3791
56.8257,2.4342
56.8257,2.4342
56.9750,2.5263
57.0991,2.6504
57.1389,2.7150
57.1909,2.7618
57.2598,2.7730
57.3239,2.7451
57.3321,2.7376
57.4397,2.6300
57.5798,2.5282
57.7341,2.4496
57.8988,2.3961
57.8988,2.3961
57.9063,2.3949
57.9063,3.4637
57.9261,3.4440
58.0116,3.3946
58.1070,3.3690
58.2057,3.3690
58.3011,3.3946
58.3866,3.4440
58.4063,3.4637
58.4063,2.3949
58.4064,2.3949
58.4139,2.3961
58.4139,2.3961
58.5786,2.4496
58.7329,2.5282
58.8730,2.6300
58.9954,2.7524
59.0972,2.8925
59.1758,3.0468
59.2293,3.2115
59.2563,3.3825
70.5761,3.3825
70.7743,3.3294
71.0083,3.2986
71.0083,3.2985
71.0083,3.2985
71.2444,3.2985
71.2444,3.2985
71.2444,3.2986
71.4784,3.3294
71.7063,3.3904
71.9244,3.4808
71.9244,3.4808
72.1288,3.5988
72.3160,3.7425
72.3161,3.7425
72.4829,3.9093
72.4829,3.9094
72.6266,4.0966
72.7446,4.3010
72.7446,4.3010
72.8350,4.5191
72.8960,4.7470
72.9268,4.9810
72.9269,4.9810
76.0058,4.9810
76.0058,0.3435
75.9862,0.2765
75.9334,0.2308
75.8819,0.2195
0.3308,0.2195
Z" /> 
<path style="fill:#02FFEE; fill-opacity:0.4000; stroke:none;fill-rule:evenodd;"
d="M 20.6563,46.4690
20.6373,46.3734
20.5831,46.2923
20.5020,46.2381
20.4063,46.2190
19.7064,46.2190
19.6107,46.2381
19.5296,46.2923
19.4754,46.3734
19.4564,46.4690
19.4564,47.7190
19.4754,47.8147
19.5296,47.8958
19.6107,47.9500
19.7064,47.9690
20.4063,47.9690
20.5020,47.9500
20.5831,47.8958
20.6373,47.8147
20.6563,47.7190
Z" /> 
</g>
<g style="fill:none; 
stroke:#02FFEE; stroke-width:1.2000; stroke-opacity:1; 
stroke-linecap:round; stroke-linejoin:round;">
<path d="M18.0563 46.8190
L18.0563 47.3690
" />
</g>
<g style="fill:#02FFEE; fill-opacity:0.4000; stroke:none;">
<circle cx="73.0314" cy="34.9680" r="0.4500" /> 
<circle cx="73.0314" cy="37.9680" r="0.4500" /> 
<circle cx="5.0863" cy="5.0991" r="1.6000" /> 
<circle cx="71.1264" cy="5.0991" r="1.6000" /> 
<circle cx="5.0863" cy="45.7390" r="1.6000" /> 
<path style="fill:#02FFEE; fill-opacity:0.4000; stroke:none;fill-rule:evenodd;"
d="M 17.4564,4.3690
17.4754,4.4647
17.5296,4.5458
17.6107,4.6000
17.7064,4.6190
18.4063,4.6190
18.5020,4.6000
18.5831,4.5458
18.6373,4.4647
18.6563,4.3690
18.6563,3.1190
18.6373,3.0234
18.5831,2.9423
18.5020,2.8881
18.4063,2.8690
17.7064,2.8690
17.6107,2.8881
17.5296,2.9423
17.4754,3.0234
17.4564,3.1190
Z" /> 
</g>
<g style="fill:none; 
stroke:#02FFEE; stroke-width:1.2000; stroke-opacity:1; 
stroke-linecap:round; stroke-linejoin:round;">
<path d="M20.0563 4.0191
L20.0563 3.4690
" />
<path style="fill:#02FFEE; fill-opacity:0.4000; stroke:none;fill-rule:evenodd;"
d="M 4.3563,20.6690
4.4520,20.6500
4.5331,20.5958
4.5873,20.5147
4.6063,20.4190
4.6063,19.7190
4.5873,19.6234
4.5331,19.5423
4.4520,19.4881
4.3563,19.4690
3.1063,19.4690
3.0107,19.4881
2.9296,19.5423
2.8754,19.6234
2.8563,19.7190
2.8563,20.4190
2.8754,20.5147
2.9296,20.5958
3.0107,20.6500
3.1063,20.6690
Z" /> 
</g>
<g style="fill:none; 
stroke:#02FFEE; stroke-width:1.2000; stroke-opacity:1; 
stroke-linecap:round; stroke-linejoin:round;">
<path d="M4.0063 18.0691
L3.4564 18.0691
" />
<path style="fill:#02FFEE; fill-opacity:0.4000; stroke:none;fill-rule:evenodd;"
d="M 55.5563,4.3690
55.5754,4.4647
55.6296,4.5458
55.7107,4.6000
55.8063,4.6190
56.5063,4.6190
56.6020,4.6000
56.6831,4.5458
56.7373,4.4647
56.7563,4.3690
56.7563,3.1190
56.7373,3.0234
56.6831,2.9423
56.6020,2.8881
56.5063,2.8690
55.8063,2.8690
55.7107,2.8881
55.6296,2.9423
55.5754,3.0234
55.5563,3.1190
Z" /> 
</g>
<g style="fill:none; 
stroke:#02FFEE; stroke-width:1.2000; stroke-opacity:1; 
stroke-linecap:round; stroke-linejoin:round;">
<path d="M58.1563 4.0191
L58.1563 3.4690
" />
</g>
<g style="fill:#02FFEE; fill-opacity:0.4000; stroke:none;">
<circle cx="69.1564" cy="22.5290" r="0.3250" /> 
<circle cx="69.1564" cy="28.3090" r="0.3250" /> 
</g>
<g style="fill:none; 
stroke:#02FFEE; stroke-width:1.0000; stroke-opacity:1; 
stroke-linecap:round; stroke-linejoin:round;">
<path d="M68.0863 21.0990
L69.1863 21.0990
" />
<path d="M72.4363 21.0990
L73.2364 21.0990
" />
<path d="M68.0863 29.7390
L69.1863 29.7390
" />
<path d="M72.4363 29.7390
L73.2364 29.7390
" />
</g>
<g style="fill:#02FFEE; fill-opacity:0.4000; stroke:none;">
<circle cx="71.1264" cy="45.7390" r="1.6000" /> 
<path style="fill:#02FFEE; fill-opacity:0.4000; stroke:none;fill-rule:evenodd;"
d="M 4.3563,33.3691
4.4520,33.3500
4.5331,33.2958
4.5873,33.2147
4.6063,33.1191
4.6063,32.4190
4.5873,32.3234
4.5331,32.2423
4.4520,32.1881
4.3563,32.1690
3.1063,32.1690
3.0107,32.1881
2.9296,32.2423
2.8754,32.3234
2.8563,32.4190
2.8563,33.1191
2.8754,33.2147
2.9296,33.2958
3.0107,33.3500
3.1063,33.3691
Z" /> 
</g>
<g style="fill:none; 
stroke:#02FFEE; stroke-width:1.2000; stroke-opacity:1; 
stroke-linecap:round; stroke-linejoin:round;">
<path d="M4.0063 30.7691
L3.4564 30.7691
" />
<path style="fill:#02FFEE; fill-opacity:0.4000; stroke:none;fill-rule:evenodd;"
d="M 58.7563,46.4690
58.7373,46.3734
58.6831,46.2923
58.6020,46.2381
58.5063,46.2190
57.8063,46.2190
57.7107,46.2381
57.6296,46.2923
57.5754,46.3734
57.5563,46.4690
57.5563,47.7190
57.5754,47.8147
57.6296,47.8958
57.7107,47.9500
57.8063,47.9690
58.5063,47.9690
58.6020,47.9500
58.6831,47.8958
58.7373,47.8147
58.7563,47.7190
Z" /> 
</g>
<g style="fill:none; 
stroke:#02FFEE; stroke-width:1.2000; stroke-opacity:1; 
stroke-linecap:round; stroke-linejoin:round;">
<path d="M56.1563 46.8190
L56.1563 47.3690
" />
</g>
<g style="fill:none; 
stroke:#D0D2CD; stroke-width:0.0381; stroke-opacity:1; 
stroke-linecap:round; stroke-linejoin:round;">
<path d="M76.2064 0.0190
L0.0063 0.0190
" />
<path d="M0.0063 0.0190
L0.0063 50.8190
" />
<path d="M76.2064 50.8190
L76.2064 0.0190
" />
<path d="M0.0063 50.8190
L76.2064 50.8190
" />
</g>
<g style="fill:#FFFFFF; fill-opacity:1.0000; stroke:none;">
<circle cx="15.3556" cy="43.0820" r="0.1270" /> 
<circle cx="7.7433" cy="15.3660" r="0.1270" /> 
<circle cx="7.7433" cy="28.0566" r="0.1270" /> 
<circle cx="65.4094" cy="25.6730" r="0.1270" /> 
<circle cx="8.4303" cy="34.1566" r="0.1270" /> 
<circle cx="69.6024" cy="40.6180" r="0.1270" /> 
<circle cx="59.5533" cy="42.3950" r="0.1270" /> 
<circle cx="22.7593" cy="7.7560" r="0.1270" /> 
<circle cx="69.1833" cy="37.2250" r="0.1270" /> 
<circle cx="54.7538" cy="8.4430" r="0.1270" /> 
<circle cx="60.8538" cy="7.7560" r="0.1270" /> 
<circle cx="16.6593" cy="8.4430" r="0.1270" /> 
<circle cx="53.4534" cy="43.0820" r="0.1270" /> 
<circle cx="21.4556" cy="42.3950" r="0.1270" /> 
<circle cx="66.4293" cy="29.8640" r="0.1270" /> 
<circle cx="8.4303" cy="21.4660" r="0.1270" /> 
<circle cx="61.0933" cy="10.6870" r="0.1270" /> 
<circle cx="10.6743" cy="15.1320" r="0.1270" /> 
<circle cx="10.6743" cy="27.8320" r="0.1270" /> 
<circle cx="62.3148" cy="40.1510" r="0.1270" /> 
<circle cx="53.2193" cy="40.1510" r="0.1270" /> 
<circle cx="22.9933" cy="10.6870" r="0.1270" /> 
<circle cx="15.1193" cy="40.1510" r="0.1270" /> 
<circle cx="12.7913" cy="15.1320" r="0.1270" /> 
<circle cx="64.9034" cy="39.6681" r="0.1270" /> 
<circle cx="64.5224" cy="33.8051" r="0.1270" /> 
<circle cx="22.9933" cy="12.8041" r="0.1270" /> 
<circle cx="12.7913" cy="27.8320" r="0.1270" /> 
<circle cx="61.0933" cy="12.8041" r="0.1270" /> 
<circle cx="15.1193" cy="38.0341" r="0.1270" /> 
<circle cx="53.2193" cy="38.0341" r="0.1270" /> 
</g>
<g style="fill:#FFFFFF; fill-opacity:1.0000; stroke:none;">
<circle cx="20.0563" cy="47.0940" r="0.3750" /> 
</g>
<g style="fill:#FFFFFF; fill-opacity:1.0000; stroke:none;">
<circle cx="18.0563" cy="47.0940" r="0.3750" /> 
</g>
<g style="fill:#000000; fill-opacity:1.0000; stroke:none;">
<circle cx="73.0314" cy="34.9680" r="0.4500" /> 
<circle cx="73.0314" cy="37.9680" r="0.4500" /> 
<circle cx="5.0863" cy="5.0991" r="1.6000" /> 
<circle cx="71.1264" cy="5.0991" r="1.6000" /> 
<circle cx="5.0863" cy="45.7390" r="1.6000" /> 
</g>
<g style="fill:#FFFFFF; fill-opacity:1.0000; stroke:none;">
<circle cx="18.0563" cy="3.7440" r="0.3750" /> 
</g>
<g style="fill:#FFFFFF; fill-opacity:1.0000; stroke:none;">
<circle cx="20.0563" cy="3.7440" r="0.3750" /> 
</g>
<g style="fill:#FFFFFF; fill-opacity:1.0000; stroke:none;">
<circle cx="3.7313" cy="20.0691" r="0.3750" /> 
</g>
<g style="fill:#FFFFFF; fill-opacity:1.0000; stroke:none;">
<circle cx="3.7313" cy="18.0691" r="0.3750" /> 
</g>
<g style="fill:#FFFFFF; fill-opacity:1.0000; stroke:none;">
<circle cx="56.1563" cy="3.7440" r="0.3750" /> 
</g>
<g style="fill:#FFFFFF; fill-opacity:1.0000; stroke:none;">
<circle cx="58.1563" cy="3.7440" r="0.3750" /> 
</g>
<g style="fill:#000000; fill-opacity:1.0000; stroke:none;">
<circle cx="69.1564" cy="22.5290" r="0.3250" /> 
<circle cx="69.1564" cy="28.3090" r="0.3250" /> 
</g>
<g style="fill:none; 
stroke:#FFFFFF; stroke-width:0.6000; stroke-opacity:1; 
stroke-linecap:round; stroke-linejoin:round;">
<path d="M68.0863 21.0990
L69.1863 21.0990
" />
</g>
<g style="fill:none; 
stroke:#FFFFFF; stroke-width:0.6000; stroke-opacity:1; 
stroke-linecap:round; stroke-linejoin:round;">
<path d="M72.4363 21.0990
L73.2364 21.0990
" />
</g>
<g style="fill:none; 
stroke:#FFFFFF; stroke-width:0.6000; stroke-opacity:1; 
stroke-linecap:round; stroke-linejoin:round;">
<path d="M68.0863 29.7390
L69.1863 29.7390
" />
</g>
<g style="fill:none; 
stroke:#FFFFFF; stroke-width:0.6000; stroke-opacity:1; 
stroke-linecap:round; stroke-linejoin:round;">
<path d="M72.4363 29.7390
L73.2364 29.7390
" />
</g>
<g style="fill:#000000; fill-opacity:1.0000; stroke:none;">
<circle cx="71.1264" cy="45.7390" r="1.6000" /> 
</g>
<g style="fill:#FFFFFF; fill-opacity:1.0000; stroke:none;">
<circle cx="3.7313" cy="32.7691" r="0.3750" /> 
</g>
<g style="fill:#FFFFFF; fill-opacity:1.0000; stroke:none;">
<circle cx="3.7313" cy="30.7691" r="0.3750" /> 
</g>
<g style="fill:#FFFFFF; fill-opacity:1.0000; stroke:none;">
<circle cx="58.1563" cy="47.0940" r="0.3750" /> 
</g>
<g style="fill:#FFFFFF; fill-opacity:1.0000; stroke:none;">
<circle cx="56.1563" cy="47.0940" r="0.3750" /> 
</g> 
</svg>
