<?xml version="1.0" encoding="UTF-8" standalone="no"?>
<svg
   version="1.1"
   width="76.238197mm"
   height="50.8381mm"
   viewBox="0 0 76.238194 50.838099"
   id="svg358"
   sodipodi:docname="pcb_back.svg"
   xmlns:inkscape="http://www.inkscape.org/namespaces/inkscape"
   xmlns:sodipodi="http://sodipodi.sourceforge.net/DTD/sodipodi-0.dtd"
   xmlns="http://www.w3.org/2000/svg"
   xmlns:svg="http://www.w3.org/2000/svg">
  <defs
     id="defs362" />
  <sodipodi:namedview
     id="namedview360"
     pagecolor="#ffffff"
     bordercolor="#000000"
     borderopacity="0.25"
     inkscape:showpageshadow="2"
     inkscape:pageopacity="0.0"
     inkscape:pagecheckerboard="0"
     inkscape:deskcolor="#d1d1d1"
     inkscape:document-units="mm" />
  <title
     id="title2">SVG Image created as pcb_back.svg date 2025-08-07T04:08:39+0000 </title>
  <desc
     id="desc4">Image generated by PCBNEW </desc>
  <g
     style="fill:#000000;fill-opacity:1;stroke:#000000;stroke-linecap:round;stroke-linejoin:round;stroke-opacity:1"
     id="g8"
     transform="translate(0.01275,5.0000235e-5)">
    <path
       style="fill:#4d7fc4;fill-opacity:1;fill-rule:evenodd;stroke:none"
       d="M 20.6563,46.469 20.6373,46.3734 20.5831,46.2923 20.502,46.2381 20.4063,46.219 h -0.6999 l -0.0957,0.0191 -0.0811,0.0542 -0.0542,0.0811 -0.019,0.0956 v 1.25 l 0.019,0.0957 0.0542,0.0811 0.0811,0.0542 0.0957,0.019 h 0.6999 l 0.0957,-0.019 0.0811,-0.0542 0.0542,-0.0811 0.019,-0.0957 z"
       id="path6" />
  </g>
  <g
     style="fill:none;stroke:#4d7fc4;stroke-width:1.2;stroke-linecap:round;stroke-linejoin:round;stroke-opacity:1"
     id="g14"
     transform="translate(0.01275,5.0000235e-5)">
    <path
       d="m 18.0563,46.819 v 0.55"
       id="path10" />
    <path
       style="fill:#4d7fc4;fill-opacity:1;fill-rule:evenodd;stroke:none"
       d="m 17.4564,4.369 0.019,0.0957 0.0542,0.0811 0.0811,0.0542 0.0957,0.019 h 0.6999 L 18.502,4.6 18.5831,4.5458 18.6373,4.4647 18.6563,4.369 V 3.119 L 18.6373,3.0234 18.5831,2.9423 18.502,2.8881 18.4063,2.869 h -0.6999 l -0.0957,0.0191 -0.0811,0.0542 -0.0542,0.0811 -0.019,0.0956 z"
       id="path12" />
  </g>
  <g
     style="fill:none;stroke:#4d7fc4;stroke-width:1.2;stroke-linecap:round;stroke-linejoin:round;stroke-opacity:1"
     id="g20"
     transform="translate(0.01275,5.0000235e-5)">
    <path
       d="M 20.0563,4.0191 V 3.469"
       id="path16" />
    <path
       style="fill:#4d7fc4;fill-opacity:1;fill-rule:evenodd;stroke:none"
       d="M 4.3563,20.669 4.452,20.65 4.5331,20.5958 4.5873,20.5147 4.6063,20.419 v -0.7 L 4.5873,19.6234 4.5331,19.5423 4.452,19.4881 4.3563,19.469 h -1.25 L 3.0107,19.4881 2.9296,19.5423 2.8754,19.6234 2.8563,19.719 v 0.7 l 0.0191,0.0957 0.0542,0.0811 0.0811,0.0542 0.0956,0.019 z"
       id="path18" />
  </g>
  <g
     style="fill:none;stroke:#4d7fc4;stroke-width:1.2;stroke-linecap:round;stroke-linejoin:round;stroke-opacity:1"
     id="g26"
     transform="translate(0.01275,5.0000235e-5)">
    <path
       d="M 4.0063,18.0691 H 3.4564"
       id="path22" />
    <path
       style="fill:#4d7fc4;fill-opacity:1;fill-rule:evenodd;stroke:none"
       d="m 55.5563,4.369 0.0191,0.0957 0.0542,0.0811 0.0811,0.0542 0.0956,0.019 h 0.7 L 56.602,4.6 56.6831,4.5458 56.7373,4.4647 56.7563,4.369 V 3.119 L 56.7373,3.0234 56.6831,2.9423 56.602,2.8881 56.5063,2.869 h -0.7 L 55.7107,2.8881 55.6296,2.9423 55.5754,3.0234 55.5563,3.119 Z"
       id="path24" />
  </g>
  <g
     style="fill:none;stroke:#4d7fc4;stroke-width:1.2;stroke-linecap:round;stroke-linejoin:round;stroke-opacity:1"
     id="g30"
     transform="translate(0.01275,5.0000235e-5)">
    <path
       d="M 58.1563,4.0191 V 3.469"
       id="path28" />
  </g>
  <g
     style="fill:none;stroke:#4d7fc4;stroke-width:1;stroke-linecap:round;stroke-linejoin:round;stroke-opacity:1"
     id="g42"
     transform="translate(0.01275,5.0000235e-5)">
    <path
       d="m 68.0863,21.099 h 1.1"
       id="path32" />
    <path
       d="m 72.4363,21.099 h 0.8001"
       id="path34" />
    <path
       d="m 68.0863,29.739 h 1.1"
       id="path36" />
    <path
       d="m 72.4363,29.739 h 0.8001"
       id="path38" />
    <path
       style="fill:#4d7fc4;fill-opacity:1;fill-rule:evenodd;stroke:none"
       d="M 4.3563,33.3691 4.452,33.35 4.5331,33.2958 4.5873,33.2147 4.6063,33.1191 V 32.419 L 4.5873,32.3234 4.5331,32.2423 4.452,32.1881 4.3563,32.169 h -1.25 L 3.0107,32.1881 2.9296,32.2423 2.8754,32.3234 2.8563,32.419 v 0.7001 l 0.0191,0.0956 0.0542,0.0811 0.0811,0.0542 0.0956,0.0191 z"
       id="path40" />
  </g>
  <g
     style="fill:none;stroke:#4d7fc4;stroke-width:1.2;stroke-linecap:round;stroke-linejoin:round;stroke-opacity:1"
     id="g48"
     transform="translate(0.01275,5.0000235e-5)">
    <path
       d="M 4.0063,30.7691 H 3.4564"
       id="path44" />
    <path
       style="fill:#4d7fc4;fill-opacity:1;fill-rule:evenodd;stroke:none"
       d="M 58.7563,46.469 58.7373,46.3734 58.6831,46.2923 58.602,46.2381 58.5063,46.219 h -0.7 l -0.0956,0.0191 -0.0811,0.0542 -0.0542,0.0811 -0.0191,0.0956 v 1.25 l 0.0191,0.0957 0.0542,0.0811 0.0811,0.0542 0.0956,0.019 h 0.7 l 0.0957,-0.019 0.0811,-0.0542 0.0542,-0.0811 0.019,-0.0957 z"
       id="path46" />
  </g>
  <g
     style="fill:none;stroke:#4d7fc4;stroke-width:1.2;stroke-linecap:round;stroke-linejoin:round;stroke-opacity:1"
     id="g52"
     transform="translate(0.01275,5.0000235e-5)">
    <path
       d="m 56.1563,46.819 v 0.55"
       id="path50" />
  </g>
  <g
     style="fill:#4d7fc4;fill-opacity:1;stroke:none"
     id="g116"
     transform="translate(0.01275,5.0000235e-5)">
    <circle
       cx="15.3556"
       cy="43.082001"
       r="0.2286"
       id="circle54" />
    <circle
       cx="7.7433"
       cy="15.366"
       r="0.2286"
       id="circle56" />
    <circle
       cx="7.7433"
       cy="28.056601"
       r="0.2286"
       id="circle58" />
    <circle
       cx="65.409401"
       cy="25.673"
       r="0.2286"
       id="circle60" />
    <circle
       cx="8.4302998"
       cy="34.156601"
       r="0.2286"
       id="circle62" />
    <circle
       cx="69.602402"
       cy="40.618"
       r="0.2286"
       id="circle64" />
    <circle
       cx="59.553299"
       cy="42.395"
       r="0.2286"
       id="circle66" />
    <circle
       cx="22.7593"
       cy="7.756"
       r="0.2286"
       id="circle68" />
    <circle
       cx="69.183296"
       cy="37.224998"
       r="0.2286"
       id="circle70" />
    <circle
       cx="54.753799"
       cy="8.4429998"
       r="0.2286"
       id="circle72" />
    <circle
       cx="60.853802"
       cy="7.756"
       r="0.2286"
       id="circle74" />
    <circle
       cx="16.6593"
       cy="8.4429998"
       r="0.2286"
       id="circle76" />
    <circle
       cx="53.4534"
       cy="43.082001"
       r="0.2286"
       id="circle78" />
    <circle
       cx="21.455601"
       cy="42.395"
       r="0.2286"
       id="circle80" />
    <circle
       cx="66.429298"
       cy="29.864"
       r="0.2286"
       id="circle82" />
    <circle
       cx="8.4302998"
       cy="21.466"
       r="0.2286"
       id="circle84" />
    <circle
       cx="61.0933"
       cy="10.687"
       r="0.2286"
       id="circle86" />
    <circle
       cx="10.6743"
       cy="15.132"
       r="0.2286"
       id="circle88" />
    <circle
       cx="10.6743"
       cy="27.832001"
       r="0.2286"
       id="circle90" />
    <circle
       cx="62.3148"
       cy="40.151001"
       r="0.2286"
       id="circle92" />
    <circle
       cx="53.219299"
       cy="40.151001"
       r="0.2286"
       id="circle94" />
    <circle
       cx="22.993299"
       cy="10.687"
       r="0.2286"
       id="circle96" />
    <circle
       cx="15.1193"
       cy="40.151001"
       r="0.2286"
       id="circle98" />
    <circle
       cx="12.7913"
       cy="15.132"
       r="0.2286"
       id="circle100" />
    <circle
       cx="64.903397"
       cy="39.668098"
       r="0.2286"
       id="circle102" />
    <circle
       cx="64.5224"
       cy="33.805099"
       r="0.2286"
       id="circle104" />
    <circle
       cx="22.993299"
       cy="12.8041"
       r="0.2286"
       id="circle106" />
    <circle
       cx="12.7913"
       cy="27.832001"
       r="0.2286"
       id="circle108" />
    <circle
       cx="61.0933"
       cy="12.8041"
       r="0.2286"
       id="circle110" />
    <circle
       cx="15.1193"
       cy="38.0341"
       r="0.2286"
       id="circle112" />
    <circle
       cx="53.219299"
       cy="38.0341"
       r="0.2286"
       id="circle114" />
  </g>
  <g
     style="fill:none;stroke:#4d7fc4;stroke-width:0.127;stroke-linecap:round;stroke-linejoin:round;stroke-opacity:1"
     id="g164"
     transform="translate(0.01275,5.0000235e-5)">
    <path
       d="m 13.5534,40.109 -2.837,-2.8369"
       id="path118" />
    <path
       d="m 22.9933,10.687 h 38.1"
       id="path120" />
    <path
       d="M 10.6743,37.2721 V 27.832"
       id="path122" />
    <path
       d="M 10.6743,15.132 V 12.931"
       id="path124" />
    <path
       d="M 15.1193,40.151 H 13.5534"
       id="path126" />
    <path
       d="m 10.6743,15.132 v 12.7"
       id="path128" />
    <path
       d="M 12.9184,10.687 H 22.9933"
       id="path130" />
    <path
       d="m 10.6743,12.931 2.2441,-2.244"
       id="path132" />
    <path
       d="M 62.3148,40.151 H 15.1193"
       id="path134" />
    <path
       d="m 64.9034,39.6681 -0.381,-0.381"
       id="path136" />
    <path
       d="m 13.4683,38.0341 -0.762,-0.762"
       id="path138" />
    <path
       d="M 64.5224,38.0341 H 53.2193"
       id="path140" />
    <path
       d="m 53.2193,38.0341 h -38.1"
       id="path142" />
    <path
       d="m 13.6168,12.8245 -0.805,0.8051"
       id="path144" />
    <path
       d="M 12.7913,13.6296 V 15.132"
       id="path146" />
    <path
       d="m 61.0933,12.8041 h -38.1"
       id="path148" />
    <path
       d="M 22.9933,12.8041 H 13.6168"
       id="path150" />
    <path
       d="m 12.7913,27.832 v -12.7"
       id="path152" />
    <path
       d="M 12.7913,37.2721 V 27.832"
       id="path154" />
    <path
       d="m 64.5224,39.2871 v -5.482"
       id="path156" />
    <path
       d="m 15.1193,38.0341 h -1.651"
       id="path158" />
    <path
       style="fill:#4d7fc4;fill-opacity:1;fill-rule:evenodd;stroke:none"
       d="M 0.2638,0.2392 0.2181,0.292 0.2068,0.3435 v 50.151 l 0.0197,0.0671 0.0528,0.0457 0.0515,0.0112 h 75.5511 l 0.067,-0.0196 0.0457,-0.0528 0.0112,-0.0516 V 45.621 h -3.0789 v 0.2361 h -1e-4 l -0.0308,0.234 -0.061,0.2279 -0.0904,0.2181 v 0 l -0.0709,0.1229 -0.0471,0.0815 v 0 0 l -0.1437,0.1872 v 1e-4 l -0.1668,0.1668 h -1e-4 l -0.11,0.0845 -0.0772,0.0592 -0.1314,0.0759 -0.073,0.0421 v 0 0 l -0.2181,0.0904 -0.2279,0.061 -0.234,0.0308 v 0 h -0.2361 v 0 l -0.234,-0.0308 -0.2279,-0.061 -0.2181,-0.0904 -0.2044,-0.118 -0.1872,-0.1437 -0.1669,-0.1669 -0.1437,-0.1872 -0.118,-0.2044 -0.0489,-0.1181 H 59.2569 v 1.3501 h -1e-4 l -0.0105,0.1027 v 0 l -0.0551,0.1666 v 0 l -0.0921,0.1493 -0.1241,0.1241 -0.1493,0.0921 -0.1666,0.0551 -0.1027,0.0105 h -0.8001 v 0 0 L 57.7,48.4638 57.6536,48.459 57.487,48.4039 l -0.1493,-0.0921 -0.1241,-0.1241 -0.0398,-0.0646 -0.052,-0.0468 -0.0689,-0.0112 -0.0641,0.0279 -0.0082,0.0075 -0.1076,0.1076 -0.1401,0.1018 -0.1543,0.0786 -0.1647,0.0535 v 0 l -0.0075,0.0012 h -10e-5 v -1.0688 l -0.0197,0.0197 -0.0855,0.0494 -0.0954,0.0255 H 56.107 l -0.0954,-0.0255 -0.0855,-0.0494 -0.0198,-0.0197 v 1.0688 L 55.8988,48.442 55.7341,48.3885 55.5798,48.3099 55.4397,48.2081 55.3173,48.0857 55.2155,47.9456 55.1369,47.7913 55.0834,47.6266 55.0563,47.4556 V 47.344 h 0.8197 l -0.0197,-0.0197 -0.0494,-0.0855 -0.0256,-0.0954 v -0.0987 l 0.0256,-0.0954 0.0494,-0.0855 0.0197,-0.0198 h -0.8197 v -0.1115 l 0.0271,-0.171 0.0349,-0.1073 0.0114,-0.0352 H 21.1568 v 1.3501 0 l -0.0105,0.1027 v 0 l -0.0551,0.1666 v 0 l -0.0921,0.1493 -0.1241,0.1241 -0.1493,0.0921 -0.1666,0.0551 -0.1027,0.0105 h -0.8001 v 0 0 L 19.6,48.4638 19.5536,48.459 19.387,48.4039 l -0.1493,-0.0921 -0.1241,-0.1241 -0.0398,-0.0646 -0.052,-0.0468 -0.0689,-0.0112 -0.0641,0.0279 -0.0082,0.0075 -0.1076,0.1076 -0.1401,0.1018 -0.1543,0.0786 -0.1647,0.0535 v 0 l -0.0075,0.0012 h -10e-5 v -1.0688 l -0.0197,0.0197 -0.0855,0.0494 -0.0954,0.0255 H 18.007 l -0.0954,-0.0255 -0.0855,-0.0494 -0.0198,-0.0197 v 1.0688 l -0.0075,-0.0012 -0.1647,-0.0535 -0.1543,-0.0786 -0.1401,-0.1018 -0.1224,-0.1224 -0.1018,-0.1401 -0.0786,-0.1543 -0.0535,-0.1647 -0.027,-0.171 V 47.344 h 0.8196 l -0.0197,-0.0197 -0.0494,-0.0855 -0.0256,-0.0954 v -0.0987 l 0.0256,-0.0954 0.0494,-0.0855 0.0197,-0.0198 h -0.8196 v -0.1115 l 0.027,-0.171 0.0535,-0.1647 0.0786,-0.1543 0.1018,-0.1401 0.1224,-0.1224 0.1401,-0.1018 0.1543,-0.0786 0.1606,-0.0521 0.0116,0.0075 v 1.0587 l 0.0198,-0.0197 0.0855,-0.0494 0.0954,-0.0256 h 0.0987 l 0.0954,0.0256 0.0855,0.0494 0.0197,0.0197 v -1.0688 h 10e-5 l 0.0075,0.0012 v 0 l 0.1647,0.0535 0.1543,0.0786 0.14,0.1018 0.1077,0.1076 0.0613,0.0335 0.0697,-0.005 0.0559,-0.0419 0.0063,-0.0092 0.0398,-0.0646 0.1241,-0.1241 0.1493,-0.0921 0.1666,-0.0551 v 0 l 0.1027,-0.0105 h 0.8001 v 0 l 0.1027,0.0105 v 0 l 0.1666,0.0551 v 0 l 0.1493,0.0921 0.1241,0.1241 0.0921,0.1493 v 0 l 0.0551,0.1666 v 0 0 l 0.0105,0.1027 h 33.9729 l 0.0072,-0.0222 0.0786,-0.1543 0.1018,-0.1401 0.1224,-0.1224 0.1401,-0.1018 0.1543,-0.0786 0.1647,-0.0535 v 0 l 0.0075,-0.0012 v 1.0688 l 0.0198,-0.0197 0.0855,-0.0494 0.0954,-0.0256 h 0.0987 l 0.0954,0.0256 0.0855,0.0494 0.0197,0.0197 v -1.0688 h 10e-5 l 0.0075,0.0012 v 0 l 0.1647,0.0535 0.1543,0.0786 0.14,0.1018 0.1077,0.1076 0.0613,0.0335 0.0697,-0.005 0.0559,-0.0419 0.0063,-0.0092 0.0398,-0.0646 0.1241,-0.1241 0.1493,-0.0921 0.1666,-0.0551 v 0 l 0.1027,-0.0105 h 0.8001 v 0 l 0.1027,0.0105 v 0 l 0.1666,0.0551 v 0 l 0.1493,0.0921 0.1241,0.1241 0.0921,0.1493 v 0 l 0.0551,0.1666 v 0 0 l 0.0106,0.1027 h 10.2023 l -0.0415,-0.1 -0.061,-0.2279 -0.0308,-0.234 V 45.621 H 6.8868 v 0.2361 0 L 6.856,46.0911 6.795,46.319 6.7046,46.5371 v 0 L 6.6337,46.66 6.5866,46.7415 v 0 0 l -0.1437,0.1872 v 1e-4 L 6.2761,47.0956 H 6.276 l -0.11,0.0845 -0.0772,0.0592 -0.1314,0.0759 -0.073,0.0421 v 0 0 l -0.2181,0.0904 -0.2279,0.061 -0.234,0.0308 v 0 H 4.9683 v 0 L 4.7343,47.5087 4.5064,47.4477 4.2883,47.3573 4.0839,47.2393 3.8967,47.0956 3.7298,46.9287 3.5861,46.7415 3.4681,46.5371 3.3777,46.319 3.3167,46.0911 3.2858,45.8571 V 45.621 l 0.0309,-0.234 0.061,-0.2279 0.0904,-0.2181 v 0 0 l 0.0421,-0.073 0.0759,-0.1314 0.1437,-0.1872 v -10e-5 l 0.1668,-0.1668 h 1e-4 l 0.1872,-0.1437 v 0 0 l 0.0815,-0.0471 0.1229,-0.0709 v 0 l 0.2181,-0.0904 0.2279,-0.061 0.234,-0.0308 v -1e-4 0 h 0.2361 v 0 1e-4 l 0.234,0.0308 0.2279,0.061 0.2181,0.0904 v 0 l 0.2044,0.118 0.1872,0.1437 h 10e-5 l 0.1668,0.1668 v 10e-5 l 0.1437,0.1872 0.118,0.2044 v 0 l 0.0904,0.2181 0.061,0.2279 0.0308,0.234 v 0 h 62.4391 v 0 l 0.0308,-0.234 0.061,-0.2279 0.0904,-0.2181 v 0 0 l 0.0421,-0.073 0.0759,-0.1314 0.1437,-0.1872 v -10e-5 l 0.1668,-0.1668 h 1e-4 l 0.1872,-0.1437 v 0 0 l 0.0815,-0.0471 0.1229,-0.0709 v 0 l 0.2181,-0.0904 0.2279,-0.061 0.234,-0.0308 v -1e-4 0 h 0.2361 v 0 1e-4 l 0.234,0.0308 0.2279,0.061 0.2181,0.0904 v 0 l 0.2044,0.118 0.1872,0.1437 h 1e-4 l 0.1668,0.1668 v 10e-5 l 0.1437,0.1872 0.118,0.2044 v 0 l 0.0904,0.2181 0.061,0.2279 0.0308,0.234 h 1e-4 3.0789 V 39.5962 H 65.6324 v 0.1437 l -0.028,0.1408 v 0 l -0.0549,0.1327 v 0 l -0.0798,0.1194 v 0 l -0.1016,0.1016 v 0 l -0.1194,0.0798 v 0 0 l -0.1327,0.0549 -0.1408,0.028 v 0 0 h -0.1437 v 0 L 64.6907,40.3691 64.558,40.3142 64.4386,40.2344 64.337,40.1328 64.3012,40.0792 h -1.2573 v 0.1437 l -0.028,0.1408 v 0 l -0.0549,0.1327 v 0 l -0.0798,0.1194 v 0 l -0.1016,0.1016 v 0 l -0.1194,0.0798 v 0 0 l -0.1327,0.0549 -0.1408,0.028 v 1e-4 0 H 62.243 v -1e-4 l -0.1408,-0.028 -0.1327,-0.0549 v 0 L 61.8779,40.7359 61.8112,40.7151 61.809,40.715 h -8.0838 l -0.067,0.0197 -0.0019,0.0012 -0.0916,0.0613 v 0 0 l -0.1327,0.0549 -0.1408,0.028 v 1e-4 0 h -0.1437 v -1e-4 l -0.1408,-0.028 -0.1327,-0.0549 v 0 L 52.7824,40.7359 52.7157,40.7151 52.7135,40.715 H 15.6252 l -0.067,0.0197 -0.0019,0.0012 -0.0916,0.0613 v 0 0 l -0.1327,0.0549 -0.1408,0.028 v 1e-4 0 h -0.1437 v -1e-4 l -0.1408,-0.028 -0.1327,-0.0549 v 0 l -0.0916,-0.0613 -0.0667,-0.0208 -0.0022,-10e-5 h -1.1344 v 0 L 13.3357,40.6766 13.207,40.6024 13.102,40.4974 13.0528,40.4121 13.0331,40.3864 10.439,37.7923 10.4133,37.7726 10.328,37.7234 10.223,37.6184 10.1488,37.4897 10.1104,37.3463 V 32.369 H 5.1068 v 0.8001 0 L 5.0964,33.2718 H 5.0963 L 5.0737,33.3403 5.0412,33.4384 4.9491,33.5877 4.825,33.7118 4.6757,33.8039 4.5091,33.859 4.4064,33.8695 H 3.0563 L 2.9536,33.859 2.787,33.8039 2.6377,33.7118 2.5136,33.5877 2.4215,33.4384 2.3664,33.2718 2.3558,33.1691 2.3559,32.369 2.3664,32.2663 2.4215,32.0997 2.5136,31.9504 2.6377,31.8263 v 0 L 2.7023,31.7865 2.7491,31.7345 2.7603,31.6656 2.7324,31.6015 2.7249,31.5932 2.6173,31.4856 2.5155,31.3456 2.4369,31.1913 2.3834,31.0266 2.3822,31.0191 H 3.451 L 3.4313,30.9993 3.3819,30.9138 3.3563,30.8184 V 30.7197 L 3.3819,30.6243 3.4313,30.5388 3.451,30.5191 H 2.3822 v -1e-4 L 2.3834,30.5115 2.4369,30.3468 2.5155,30.1925 2.6173,30.0524 2.7397,29.93 2.8798,29.8282 3.0341,29.7496 3.1988,29.6961 3.3698,29.669 h 0.1115 v 0.8197 L 3.5011,30.469 3.5866,30.4196 3.682,30.3941 h 0.0987 l 0.0954,0.0255 0.0855,0.0494 0.0197,0.0197 V 29.669 h 0.1116 l 0.171,0.0271 0.1647,0.0535 0.1543,0.0786 0.1401,0.1018 0.1224,0.1224 0.1018,0.1401 0.0786,0.1543 0.0535,0.1647 0.0012,0.0075 v 1e-4 H 4.0117 l 0.0197,0.0197 0.0494,0.0855 0.0255,0.0954 v 0.0987 l -0.0255,0.0954 -0.0494,0.0855 -0.0197,0.0198 h 1.0688 l -0.0012,0.0075 -0.0535,0.1647 -0.0786,0.1543 -0.1018,0.1401 -0.1076,0.1075 -0.0335,0.0614 0.005,0.0697 0.0419,0.0559 0.0092,0.0063 0.0646,0.0398 0.1241,0.1241 0.0921,0.1493 v 0 l 0.0551,0.1666 v 0 h 10e-5 l 0.0104,0.1027 h 5.0036 v -4.0311 l -0.0197,-0.067 -0.0012,-0.0019 -0.0613,-0.0916 v 0 0 L 9.9733,28.0447 9.9452,27.9039 v -0.1437 0 h 10e-5 l 0.028,-0.1408 v 0 l 0.0549,-0.1327 v 0 0 l 0.0613,-0.0916 0.0208,-0.0667 10e-5,-0.0022 V 19.669 H 5.1068 v 0.8001 0 L 5.0964,20.5718 H 5.0963 L 5.0786,20.6254 5.0412,20.7384 4.9491,20.8877 4.825,21.0118 4.6757,21.1039 4.5091,21.159 4.4064,21.1695 H 3.0563 L 2.9536,21.159 2.787,21.1039 2.6377,21.0118 2.5136,20.8877 2.4215,20.7384 2.3664,20.5718 2.3558,20.4691 2.3559,19.669 2.3664,19.5663 2.4215,19.3997 2.5136,19.2504 2.6377,19.1263 v 0 L 2.7023,19.0865 2.7491,19.0345 2.7603,18.9656 2.7324,18.9015 2.7249,18.8932 2.6173,18.7856 2.5155,18.6456 2.4369,18.4913 2.3834,18.3266 2.3822,18.3191 H 3.451 L 3.4313,18.2993 3.3819,18.2138 3.3563,18.1184 V 18.0197 L 3.3819,17.9243 3.4313,17.8388 3.451,17.8191 H 2.3822 V 17.819 L 2.3834,17.8115 2.4369,17.6468 2.5155,17.4925 2.6173,17.3524 2.7397,17.23 2.8798,17.1282 3.0341,17.0496 3.1988,16.9961 3.3698,16.969 h 0.1115 v 0.8197 L 3.5011,17.769 3.5866,17.7196 3.682,17.6941 h 0.0987 l 0.0954,0.0255 0.0855,0.0494 0.0197,0.0197 V 16.969 h 0.1116 l 0.171,0.0271 0.1647,0.0535 0.1543,0.0786 0.1401,0.1018 0.1224,0.1224 0.1018,0.1401 0.0786,0.1543 0.0535,0.1647 0.0012,0.0075 v 10e-5 H 4.0117 l 0.0197,0.0197 0.0494,0.0855 0.0255,0.0954 v 0.0987 l -0.0255,0.0954 -0.0494,0.0855 -0.0197,0.0198 h 1.0688 l -0.0012,0.0075 -0.0535,0.1647 -0.0786,0.1543 -0.1018,0.1401 -0.1076,0.1075 -0.0335,0.0614 0.005,0.0697 0.0419,0.0559 0.0092,0.0063 0.0646,0.0398 0.1241,0.1241 0.0921,0.1493 v 0 l 0.0551,0.1666 v 0 h 10e-5 l 0.0104,0.1027 h 5.0036 v -4.0311 l -0.0197,-0.067 -0.0012,-0.0019 -0.0613,-0.0916 v 0 0 L 9.9733,15.3447 9.9452,15.2039 v -0.1437 0 h 10e-5 l 0.028,-0.1408 v 0 l 0.0549,-0.1327 v 0 0 l 0.0613,-0.0916 0.0208,-0.0667 10e-5,-0.0022 v -1.7694 0 l 0.0384,-0.1434 0.0742,-0.1287 0.105,-0.105 v 0 l 0.0044,-0.0043 v 0 L 12.46,10.3478 v 0 l 0.112,-0.1121 v 0 l 0.1287,-0.0742 0.1434,-0.0385 v 0 h 9.6434 l 0.067,-0.0196 0.0019,-0.0012 0.0916,-0.0613 v 0 L 22.7807,9.986 v 0 l 0.1408,-0.028 v 0 h 0.1437 v 0 l 0.1408,0.028 v 0 l 0.1327,0.0549 v 0 l 0.0916,0.0613 0.0667,0.0208 h 0.0022 37.0883 l 0.067,-0.0196 0.0019,-0.0012 0.0916,-0.0613 v 0 L 60.8807,9.986 v 0 l 0.1408,-0.028 v 0 h 0.1437 v 0 l 0.1408,0.028 v 0 l 0.1327,0.0549 v 0 l 0.1194,0.0798 v 0 l 0.1016,0.1016 v 0 l 0.0798,0.1194 v 0 l 0.0549,0.1327 v 0 l 0.028,0.1408 v 0.1437 l -0.028,0.1408 v 0 l -0.0549,0.1327 v 0 l -0.0798,0.1194 v 0 l -0.1016,0.1016 v 0 l -0.1194,0.0798 v 0 0 l -0.1327,0.0549 -0.1408,0.028 v 10e-5 0 h -0.1437 v -10e-5 l -0.1408,-0.028 -0.1327,-0.0549 v 0 L 60.6564,11.2719 60.5897,11.2511 60.5875,11.251 H 23.4992 l -0.067,0.0197 -0.0019,0.0012 -0.0916,0.0613 v 0 0 l -0.1327,0.0549 -0.1408,0.028 v 10e-5 0 h -0.1437 v -10e-5 l -0.1408,-0.028 -0.1327,-0.0549 v 0 l -0.0916,-0.0613 -0.0667,-0.0208 -0.0022,-10e-5 h -9.2842 l -0.067,0.0197 -0.0207,0.0167 -1.8409,1.8409 -0.0335,0.0614 -0.0029,0.0263 v 1.4102 l 0.0197,0.067 0.0012,0.0019 0.0613,0.0916 v 0 l 0.0549,0.1327 v 0 l 0.028,0.1408 v 0.1437 l -0.028,0.1408 v 0 l -0.0549,0.1327 v 0 l -0.0613,0.0916 -0.0208,0.0667 -10e-5,0.0022 v 11.6883 l 0.0197,0.067 0.0012,0.0019 0.0613,0.0916 v 0 l 0.0549,0.1327 v 0 l 0.028,0.1408 v 0.1437 l -0.028,0.1408 v 0 l -0.0549,0.1327 v 0 l -0.0613,0.0916 -0.0208,0.0667 -10e-5,0.0022 v 8.6072 l 0.0197,0.067 0.0167,0.0207 2.5179,2.5179 0.0614,0.0335 0.0263,0.0028 h 0.7332 l 0.067,-0.0196 0.0019,-0.0012 0.0916,-0.0613 v 0 L 14.9067,39.45 v 0 l 0.1408,-0.0281 v 0 h 0.1437 v 0 L 15.332,39.45 v 0 l 0.1327,0.0549 v 0 l 0.0916,0.0613 0.0667,0.0208 h 0.0022 37.0883 l 0.067,-0.0196 0.0019,-0.0012 0.0916,-0.0613 v 0 L 53.0067,39.45 v 0 l 0.1408,-0.0281 v 0 h 0.1437 v 0 L 53.432,39.45 v 0 l 0.1327,0.0549 v 0 l 0.0916,0.0613 0.0667,0.0208 h 0.0022 8.0838 l 0.067,-0.0196 0.0019,-0.0012 0.0916,-0.0613 v 0 L 62.1022,39.45 v 0 l 0.1408,-0.0281 v 0 h 0.1437 v 0 l 0.1408,0.0281 v 0 l 0.1327,0.0549 v 0 l 0.1194,0.0798 v 0 l 0.1016,0.1016 v 0 l 0.0798,0.1194 v 0 l 0.0549,0.1327 v 0 l 0.028,0.1408 h 1.2573 l -0.044,-0.0658 -0.0549,-0.1327 -0.0215,-0.1081 -0.0054,-0.0117 -8e-4,-0.0093 -0.0113,-0.0173 -0.0061,-0.0134 -0.0048,-0.0062 -0.0814,-0.0813 -0.0494,-0.0857 -0.0248,-0.043 -0.0385,-0.1434 V 39.2128 38.722 L 63.9387,38.655 63.8859,38.6093 63.8344,38.5981 H 53.7252 l -0.067,0.0196 -0.0019,0.0012 -0.0916,0.0613 v 0 0 l -0.1327,0.0549 -0.1408,0.028 v 0 0 h -0.1437 v 0 L 53.0067,38.7351 52.874,38.6802 52.8363,38.655 52.7824,38.6189 52.7157,38.5981 H 52.7135 15.6252 l -0.067,0.0196 -0.0019,0.0012 -0.0916,0.0613 v 0 0 l -0.1327,0.0549 -0.1408,0.028 v 0 0 h -0.1437 v 0 L 14.9067,38.7351 14.774,38.6802 14.7363,38.655 14.6824,38.6189 14.6157,38.5981 h -0.0022 -1.2194 v 0 l -0.1434,-0.0385 -0.0262,-0.0151 -0.1025,-0.0591 -0.105,-0.105 v 0 l -0.0102,-0.0103 v 0 L 12.255,37.6184 12.1808,37.4897 12.1423,37.3463 v -0.1485 l 0.0385,-0.1434 0.0299,-0.0519 0.0166,-0.062 v -8.6026 l -0.0196,-0.067 -0.0012,-0.0019 -0.0613,-0.0916 v 0 0 l -0.0549,-0.1327 -0.0281,-0.1408 v -0.1437 0 h 10e-5 l 0.028,-0.1408 v 0 l 0.0549,-0.1327 v 0 0 l 0.0613,-0.0916 0.0208,-0.0667 V 27.3262 15.6379 l -0.0196,-0.067 -0.0012,-0.0019 -0.0613,-0.0916 v 0 0 l -0.0549,-0.1327 -0.0281,-0.1408 v -0.1437 0 h 10e-5 l 0.028,-0.1408 v 0 l 0.0549,-0.1327 v 0 0 l 0.0613,-0.0916 0.0208,-0.0667 v -0.0022 -1.0709 0 l 0.0385,-0.1434 0.0742,-0.1287 0.105,-0.105 0.0236,-0.0135 0.0108,-0.0063 0.0257,-0.0197 0.6209,-0.6209 0.0197,-0.0257 0.0198,-0.0344 0.105,-0.105 0.1287,-0.0742 0.1434,-0.0384 v 0 h 8.9449 l 0.067,-0.0197 0.0019,-0.0012 0.0916,-0.0613 v 0 l 0.1327,-0.0549 v 0 l 0.1408,-0.0281 v 0 h 0.1437 v 0 l 0.1408,0.0281 v 0 l 0.1327,0.0549 v 0 l 0.0916,0.0613 0.0667,0.0208 0.0022,10e-5 h 37.0883 l 0.067,-0.0197 0.0019,-0.0012 0.0916,-0.0613 v 0 l 0.1327,-0.0549 v 0 l 0.1408,-0.0281 v 0 h 0.1437 v 0 l 0.1408,0.0281 v 0 l 0.1327,0.0549 v 0 l 0.1194,0.0798 v 0 l 0.1016,0.1016 v 0 l 0.0798,0.1194 v 0 l 0.0549,0.1327 v 0 l 0.028,0.1408 v 0.1437 l -0.028,0.1408 v 0 l -0.0549,0.1327 v 0 l -0.0798,0.1194 v 0 l -0.1016,0.1016 v 0 l -0.1194,0.0798 v 0 0 l -0.1327,0.0549 -0.1408,0.028 v 0 0 h -0.1437 v 0 l -0.1408,-0.028 -0.1327,-0.0549 -0.0574,-0.0383 -0.0342,-0.023 -0.0667,-0.0208 H 60.5875 23.4992 l -0.067,0.0196 -0.0019,0.0012 -0.0916,0.0613 v 0 0 l -0.1327,0.0549 -0.1408,0.028 v 0 0 h -0.1437 v 0 l -0.1408,-0.028 -0.1327,-0.0549 -0.0574,-0.0383 -0.0342,-0.023 -0.0667,-0.0208 h -0.0022 -8.5652 l -0.067,0.0196 -0.0207,0.0167 -0.4429,0.4429 -0.0335,0.0614 -0.0029,0.0263 v 0.6912 l 0.0197,0.067 0.0012,0.0019 0.0613,0.0916 v 0 l 0.0549,0.1327 v 0 l 0.028,0.1408 v 0.1437 l -0.028,0.1408 v 0 l -0.0549,0.1327 v 0 l -0.0613,0.0916 -0.0208,0.0667 -10e-5,0.0022 v 11.6883 l 0.0197,0.067 0.0012,0.0019 0.0613,0.0916 v 0 l 0.0549,0.1327 v 0 l 0.028,0.1408 v 0.1437 l -0.028,0.1408 v 0 l -0.0549,0.1327 v 0 l -0.0613,0.0916 -0.0208,0.0667 -10e-5,0.0022 v 8.7342 l 0.0197,0.067 0.0167,0.0207 0.2739,0.2739 0.0614,0.0335 0.0263,0.0029 h 0.8602 l 0.067,-0.0197 0.0019,-0.0012 0.0916,-0.0613 v 0 l 0.1327,-0.0549 v 0 l 0.1408,-0.0281 v 0 h 0.1437 v 0 l 0.1408,0.0281 v 0 l 0.1327,0.0549 v 0 l 0.0916,0.0613 0.0667,0.0208 0.0022,1e-4 h 37.0883 l 0.067,-0.0197 0.0019,-0.0012 0.0916,-0.0613 v 0 l 0.1327,-0.0549 v 0 l 0.1408,-0.0281 v 0 h 0.1437 v 0 l 0.1408,0.0281 v 0 l 0.1327,0.0549 v 0 l 0.0916,0.0613 0.0667,0.0208 0.0022,1e-4 h 10.1092 l 0.067,-0.0197 0.0457,-0.0528 0.0112,-0.0516 v -3.0351 l -0.0196,-0.067 -0.0012,-0.0019 -0.0613,-0.0916 v 0 0 l -0.0549,-0.1327 -0.028,-0.1408 v -0.1437 0 0 l 0.028,-0.1408 v 0 l 0.0549,-0.1327 v 0 0 l 0.0798,-0.1194 v 0 l 0.1016,-0.1016 v 0 l 0.1194,-0.0798 v 0 l 0.1327,-0.0549 v 0 l 0.1408,-0.0281 v 0 h 0.1437 v 0 l 0.1408,0.0281 v 0 l 0.1327,0.0549 v 0 l 0.1194,0.0798 v 0 l 0.1016,0.1016 v 0 l 0.0798,0.1194 v 0 l 0.0549,0.1327 v 0 l 0.028,0.1408 v 0.1437 l -0.028,0.1408 v 0 l -0.0549,0.1327 v 0 l -0.0613,0.0916 -0.0208,0.0667 -1e-4,0.0022 v 4.5609 l 0.0197,0.0671 0.0528,0.0457 0.0041,0.0018 0.0858,0.0355 v 0 l 0.1194,0.0798 v 0 l 0.1016,0.1016 v 0 l 0.0798,0.1194 v 0 l 0.0549,0.1327 v 0 l 0.028,0.1408 h 10.3734 v -1.5641 h -2.3239 l -0.025,0.1257 v 0 l -0.0491,0.1184 v 0 l -0.0712,0.1065 v 0 l -0.0906,0.0906 v 0 l -0.1065,0.0712 v 0 l -0.1184,0.0491 v 0 0 l -0.1257,0.0249 v 0 h -0.1281 l -0.103,-0.0204 -0.0227,-0.0045 -0.1184,-0.0491 -0.1065,-0.0712 -0.0906,-0.0906 -0.0712,-0.1065 -0.0491,-0.1184 -0.025,-0.1257 v -0.1281 0 l 0.025,-0.1257 v 0 0 l 0.0491,-0.1184 v 0 0 l 0.0712,-0.1065 v 0 l 0.0906,-0.0906 v 0 l 0.1065,-0.0712 v 0 l 0.1184,-0.0491 v 0 l 0.1257,-0.025 v 0 h 0.1281 v 0 l 0.1257,0.025 v 0 l 0.1184,0.0491 v 0 l 0.1065,0.0712 v 0 l 0.0906,0.0906 v 0 l 0.0712,0.1065 v 0 l 0.0491,0.1184 v 0 l 0.0249,0.1257 v 0 0.1281 0 h 1e-4 2.3239 v -3 h -2.3239 l -0.025,0.1257 v 0 l -0.0491,0.1184 v 0 l -0.0712,0.1065 v 0 l -0.0906,0.0906 v 0 l -0.1065,0.0712 v 0 0 l -0.1184,0.0491 v 0 0 l -0.1257,0.0249 v 0 h -0.1281 l -0.0846,-0.0168 -0.0411,-0.0081 -0.1184,-0.0491 -0.1065,-0.0712 -0.0906,-0.0906 -0.0712,-0.1065 -0.0491,-0.1184 -0.025,-0.1257 v -0.1281 0 l 0.025,-0.1257 v 0 0 l 0.0491,-0.1184 v 0 0 l 0.0712,-0.1065 v 0 l 0.0906,-0.0906 v 0 l 0.1065,-0.0712 v 0 l 0.1184,-0.0491 v 0 l 0.1257,-0.025 v 0 h 0.1281 v 0 l 0.1257,0.025 v 0 l 0.1184,0.0491 v 0 l 0.1065,0.0712 v 0 l 0.0906,0.0906 v 0 l 0.0712,0.1065 v 0 l 0.0491,0.1184 v 0 l 0.0249,0.1257 v 0 0.1281 0 h 1e-4 2.3239 V 29.489 h -1.7996 -0.8029 l 0.0173,0.01 0.0558,0.0558 0.0395,0.0685 0.0204,0.0763 v 0.0789 l -0.0204,0.0763 -0.0395,0.0685 -0.0558,0.0558 -0.0173,0.0099 h 0.8029 l -0.0083,0.0417 v 0 l -0.0754,0.182 v 0 l -0.1094,0.1638 v 0 l -0.1393,0.1393 v 0 L 73.71,30.6252 v 0 l -0.182,0.0754 v 0 l -0.1932,0.0384 v 0 h -0.2485 v -0.7 h -0.5 v 0.7 h -0.2484 v 0 l -0.1932,-0.0384 v 0 l -0.182,-0.0754 v 0 l -0.1638,-0.1094 v 0 l -0.1393,-0.1393 v 0 l -0.1094,-0.1638 v 0 l -0.0754,-0.182 v 0 L 71.4665,29.989 h 0.8029 l -0.0173,-0.0099 -0.0558,-0.0558 -0.0395,-0.0685 -0.0205,-0.0763 v -0.0789 l 0.0205,-0.0763 0.0395,-0.0685 0.0558,-0.0558 0.0173,-0.01 h -0.8029 -1.3103 -0.8029 l 0.0173,0.01 0.0558,0.0558 0.0395,0.0685 0.0205,0.0763 v 0.0789 l -0.0205,0.0763 -0.0395,0.0685 -0.0558,0.0558 -0.0173,0.0099 h 0.8029 l -0.0083,0.0417 v 0 l -0.0754,0.182 v 0 l -0.1094,0.1638 v 0 l -0.1393,0.1393 v 0 L 69.66,30.6252 v 0 l -0.182,0.0754 v 0 l -0.1932,0.0384 v 0 h -0.3985 v -0.7 h -0.5 v 0.7 h -0.3984 v 0 l -0.1932,-0.0384 v 0 l -0.182,-0.0754 v 0 l -0.1638,-0.1094 v 0 l -0.1393,-0.1393 v 0 l -0.1094,-0.1638 v 0 l -0.0754,-0.182 v 0 L 67.1165,29.989 h 0.8029 l -0.0173,-0.0099 -0.0558,-0.0558 -0.0395,-0.0685 -0.0205,-0.0763 v -0.0789 l 0.0205,-0.0763 0.0395,-0.0685 0.0558,-0.0558 0.0173,-0.01 h -0.8029 l 0.0083,-0.0416 v 0 l 0.0754,-0.182 v 0 l 0.1094,-0.1638 v 0 l 0.1393,-0.1393 v 0 l 0.1638,-0.1094 v 0 l 0.182,-0.0754 v 0 l 0.1932,-0.0385 h 0.3984 v 0.7 h 0.5 v -0.6079 l -0.0196,-0.067 -0.0148,-0.0188 -0.0113,-0.0118 -0.0069,-0.0039 -0.0979,-0.0979 -0.0691,-0.1198 -0.0359,-0.1337 v -0.1383 l 0.0359,-0.1337 0.0691,-0.1198 0.0979,-0.0979 v 0 0 l 0.1198,-0.0691 v 0 0 l 0.1337,-0.0359 h 0.1383 l 0.1337,0.0359 v 0 l 0.1198,0.0691 v 0 l 0.0979,0.0979 v 0 l 0.0691,0.1198 v 0 l 0.0358,0.1337 v 0.1383 l -0.0358,0.1337 v 0 l -0.0691,0.1198 v 0 l -8e-4,8e-4 -5e-4,8e-4 -0.0037,0.0049 8e-4,5e-4 -0.0301,0.0551 0.005,0.0697 0.0418,0.056 0.0269,0.0152 0.0437,0.0182 v 0 l 0.1638,0.1094 v 0 l 0.1393,0.1393 v 0 l 0.1094,0.1638 v 0 l 0.0754,0.182 v 0 l 0.0083,0.0416 h 1.3103 l 0.0083,-0.0416 v 0 l 0.0754,-0.182 v 0 l 0.1094,-0.1638 v 0 l 0.1393,-0.1393 v 0 l 0.1638,-0.1094 v 0 l 0.182,-0.0754 v 0 l 0.1932,-0.0385 h 0.2484 v 0.7 h 0.5 v -0.7 h 0.2485 l 0.1932,0.0385 v 0 l 0.182,0.0754 v 0 l 0.1638,0.1094 v 0 l 0.1393,0.1393 v 0 l 0.1094,0.1638 v 0 l 0.0754,0.182 v 0 l 0.0083,0.0416 h 1.7996 v -8.64 h -1.7996 -0.8029 l 0.0173,0.01 0.0558,0.0558 0.0395,0.0685 0.0204,0.0763 v 0.0789 l -0.0204,0.0763 -0.0395,0.0685 -0.0558,0.0558 -0.0173,0.0099 h 0.8029 l -0.0083,0.0417 v 0 l -0.0754,0.182 v 0 l -0.1094,0.1638 v 0 l -0.1393,0.1393 v 0 L 73.71,21.9852 v 0 l -0.182,0.0754 v 0 l -0.1932,0.0384 v 0 h -0.2485 v -0.7 h -0.5 v 0.7 h -0.2484 v 0 l -0.1932,-0.0384 v 0 l -0.182,-0.0754 v 0 l -0.1638,-0.1094 v 0 l -0.1393,-0.1393 v 0 l -0.1094,-0.1638 v 0 l -0.0754,-0.182 v 0 L 71.4665,21.349 h 0.8029 l -0.0173,-0.0099 -0.0558,-0.0558 -0.0395,-0.0685 -0.0205,-0.0763 v -0.0789 l 0.0205,-0.0763 0.0395,-0.0685 0.0558,-0.0558 0.0173,-0.01 h -0.8029 -1.3103 -0.8029 l 0.0173,0.01 0.0558,0.0558 0.0395,0.0685 0.0205,0.0763 v 0.0789 l -0.0205,0.0763 -0.0395,0.0685 -0.0558,0.0558 -0.0173,0.0099 h 0.8029 l -0.0083,0.0417 v 0 l -0.0754,0.182 v 0 l -0.1094,0.1638 v 0 l -0.1393,0.1393 v 0 L 69.66,21.9852 v 0 l -0.0437,0.0182 -0.0544,0.0438 -0.0221,0.0663 0.0173,0.0677 0.019,0.0244 8e-4,8e-4 v 0 l 0.0691,0.1198 v 0 l 0.0358,0.1337 v 0.1383 l -0.0358,0.1337 v 0 l -0.0691,0.1198 v 0 0 l -0.0979,0.0979 -0.1198,0.0691 -0.1337,0.0358 v 0 h -0.1383 v 0 l -0.1337,-0.0358 -0.1198,-0.0691 -0.0979,-0.0979 -0.0691,-0.1198 -0.0359,-0.1337 v -0.1383 l 0.0359,-0.1337 0.0691,-0.1198 0.0979,-0.0979 v 0 0 l 0.0041,-0.0031 0.0412,-0.0565 0.0073,-0.0419 v -0.608 h -0.5 v 0.7 h -0.3984 v 0 l -0.1932,-0.0384 v 0 l -0.182,-0.0754 v 0 l -0.1638,-0.1094 v 0 l -0.1393,-0.1393 v 0 l -0.1094,-0.1638 v 0 l -0.0754,-0.182 v 0 L 67.1165,21.349 h 0.8029 l -0.0173,-0.0099 -0.0558,-0.0558 -0.0395,-0.0685 -0.0205,-0.0763 v -0.0789 l 0.0205,-0.0763 0.0395,-0.0685 0.0558,-0.0558 0.0173,-0.01 h -0.8029 l 0.0083,-0.0416 v 0 l 0.0754,-0.182 v 0 l 0.1094,-0.1638 v 0 l 0.1393,-0.1393 v 0 l 0.1638,-0.1094 v 0 l 0.182,-0.0754 v 0 l 0.1932,-0.0385 h 0.3984 v 0.7 h 0.5 v -0.7 h 0.3985 l 0.1932,0.0385 v 0 l 0.182,0.0754 v 0 l 0.1638,0.1094 v 0 l 0.1393,0.1393 v 0 l 0.1094,0.1638 v 0 l 0.0754,0.182 v 0 l 0.0083,0.0416 h 1.3103 l 0.0083,-0.0416 v 0 l 0.0754,-0.182 v 0 l 0.1094,-0.1638 v 0 l 0.1393,-0.1393 v 0 l 0.1638,-0.1094 v 0 l 0.182,-0.0754 v 0 l 0.1932,-0.0385 h 0.2484 v 0.7 h 0.5 v -0.7 h 0.2485 l 0.1932,0.0385 v 0 l 0.182,0.0754 v 0 l 0.1638,0.1094 v 0 l 0.1393,0.1393 v 0 l 0.1094,0.1638 v 0 l 0.0754,0.182 v 0 l 0.0083,0.0416 h 1.7996 V 4.981 h -3.0789 v 0.2361 h -1e-4 L 72.896,5.4511 72.835,5.679 72.7446,5.8971 v 0 L 72.6737,6.02 72.6266,6.1015 v 0 0 l -0.1437,0.1872 v 10e-5 l -0.1668,0.1668 h -1e-4 l -0.1872,0.1437 -0.1314,0.0759 -0.073,0.0421 v 0 0 l -0.2181,0.0904 -0.2279,0.061 -0.234,0.0308 v 0 h -0.2361 v 0 L 70.7743,6.8687 70.5464,6.8077 70.3283,6.7173 70.1239,6.5993 69.9367,6.4556 69.7698,6.2887 69.6261,6.1015 69.5081,5.8971 69.4177,5.679 69.3567,5.4511 69.3259,5.2171 V 4.981 l 0.0308,-0.234 0.061,-0.2279 0.0904,-0.2181 v 0 0 l 0.0421,-0.073 0.0759,-0.1314 0.1181,-0.1539 0.0256,-0.0333 v -1e-4 l 0.1668,-0.1668 h 1e-4 l 0.1872,-0.1437 v 0 0 L 70.3053,3.494 70.321,3.485 v 0 0 l 0.0073,-0.0042 v 0 L 70.5464,3.3904 70.5761,3.3825 H 59.2563 V 3.494 h -0.8196 l 0.0197,0.0198 0.0494,0.0855 0.0255,0.0954 V 3.7934 L 58.5058,3.8888 58.4564,3.9743 58.4367,3.994 h 0.8196 v 0.1116 l -0.027,0.171 -0.0535,0.1647 -0.0786,0.1543 -0.1018,0.1401 -0.1224,0.1224 -0.1401,0.1018 -0.1543,0.0786 -0.1647,0.0535 v 0 l -0.0075,0.0012 h -10e-5 V 4.0244 L 58.3866,4.0441 58.3011,4.0935 58.2057,4.119 H 58.107 L 58.0116,4.0935 57.9261,4.0441 57.9063,4.0244 V 5.0932 L 57.8988,5.092 57.7341,5.0385 57.5798,4.9599 57.4398,4.8581 57.3322,4.7505 57.2708,4.717 57.2011,4.722 57.1452,4.7639 57.1389,4.7731 57.0991,4.8377 56.975,4.9618 56.8257,5.0539 56.6591,5.109 56.5564,5.1195 h -0.8001 v 0 0 L 55.7,5.1138 55.6536,5.109 55.487,5.0539 55.3377,4.9618 55.2136,4.8377 55.1215,4.6884 55.0664,4.5218 55.0558,4.4191 l 1e-4,-0.6766 v -0.36 H 21.1563 V 3.494 h -0.8196 l 0.0197,0.0198 0.0494,0.0855 0.0255,0.0954 V 3.7934 L 20.4058,3.8888 20.3564,3.9743 20.3367,3.994 h 0.8196 v 0.1116 l -0.027,0.171 -0.0535,0.1647 -0.0786,0.1543 -0.1018,0.1401 -0.1224,0.1224 -0.1401,0.1018 -0.1543,0.0786 -0.1647,0.0535 v 0 l -0.0075,0.0012 h -10e-5 V 4.0244 L 20.2866,4.0441 20.2011,4.0935 20.1057,4.119 H 20.007 L 19.9116,4.0935 19.8261,4.0441 19.8063,4.0244 V 5.0932 L 19.7988,5.092 19.6341,5.0385 19.4798,4.9599 19.3398,4.8581 19.2322,4.7505 19.1708,4.717 19.1011,4.722 19.0452,4.7639 19.0389,4.7731 18.9991,4.8377 18.875,4.9618 18.7257,5.0539 18.5591,5.109 18.4564,5.1195 h -0.8001 v 0 0 L 17.6,5.1138 17.5536,5.109 17.387,5.0539 17.269,4.981 H 6.8868 v 0.2361 0 L 6.856,5.4511 6.795,5.679 6.7046,5.8971 v 0 L 6.6337,6.02 6.5866,6.1015 v 0 0 L 6.4429,6.2887 v 10e-5 L 6.2761,6.4556 H 6.276 L 6.0888,6.5993 5.9574,6.6752 5.8844,6.7173 v 0 0 L 5.6663,6.8077 5.4384,6.8687 5.2044,6.8995 v 0 H 4.9683 v 0 L 4.7343,6.8687 4.5064,6.8077 4.2883,6.7173 4.0839,6.5993 3.8967,6.4556 3.7298,6.2887 3.5861,6.1015 3.4681,5.8971 3.3777,5.679 3.3167,5.4511 3.2858,5.2171 V 4.981 L 3.3167,4.747 3.3777,4.5191 3.4681,4.301 v 0 0 L 3.5102,4.228 3.5861,4.0966 3.6799,3.9743 3.7298,3.9094 v -1e-4 L 3.8966,3.7425 h 1e-4 L 4.0839,3.5988 v 0 0 L 4.1654,3.5517 4.2883,3.4808 v 0 L 4.5064,3.3904 4.7343,3.3294 4.9683,3.2986 v -10e-5 0 h 0.2361 v 0 10e-5 l 0.234,0.0308 0.2279,0.061 0.2181,0.0904 v 0 l 0.2044,0.118 0.1872,0.1437 h 10e-5 l 0.1668,0.1668 v 1e-4 l 0.1437,0.1872 0.118,0.2044 v 0 L 6.795,4.5191 6.856,4.747 6.8868,4.981 v 0 H 17.269 L 17.2377,4.9618 17.1136,4.8377 17.0215,4.6884 16.9664,4.5218 16.9558,4.4191 16.9559,3.069 16.9664,2.9663 17.0215,2.7997 17.1136,2.6504 17.2377,2.5263 17.387,2.4342 17.5536,2.3791 v -1e-4 l 0.1027,-0.0105 h 0.8001 v 10e-5 l 0.1027,0.0104 v 1e-4 l 0.1666,0.0551 v 0 l 0.1493,0.0921 0.1241,0.1241 0.0398,0.0646 0.052,0.0468 0.0689,0.0112 0.0641,-0.0279 0.0083,-0.0075 0.1075,-0.1076 0.1401,-0.1018 0.1543,-0.0786 0.1647,-0.0535 v 0 L 19.8063,2.3949 V 3.4637 L 19.8261,3.444 19.9116,3.3946 20.007,3.369 h 0.0987 l 0.0954,0.0256 0.0855,0.0494 0.0197,0.0197 V 2.3949 h 10e-5 l 0.0075,0.0012 v 0 l 0.1647,0.0535 0.1543,0.0786 0.1401,0.1018 0.1224,0.1224 0.1018,0.1401 0.0786,0.1543 0.0535,0.1647 0.027,0.171 H 55.0559 V 3.3776 3.069 v 0 l 0.0105,-0.1027 v 0 L 55.0908,2.8925 55.1215,2.7997 55.2136,2.6504 55.3377,2.5263 55.487,2.4342 55.6536,2.3791 v -1e-4 l 0.1027,-0.0105 h 0.8001 v 10e-5 l 0.1027,0.0104 v 1e-4 l 0.1666,0.0551 v 0 l 0.1493,0.0921 0.1241,0.1241 0.0398,0.0646 0.052,0.0468 0.0689,0.0112 0.0641,-0.0279 0.0082,-0.0075 0.1076,-0.1076 0.1401,-0.1018 0.1543,-0.0786 0.1647,-0.0535 v 0 L 57.9063,2.3949 V 3.4637 L 57.9261,3.444 58.0116,3.3946 58.107,3.369 h 0.0987 l 0.0954,0.0256 0.0855,0.0494 0.0197,0.0197 V 2.3949 h 10e-5 l 0.0075,0.0012 v 0 l 0.1647,0.0535 0.1543,0.0786 0.1401,0.1018 0.1224,0.1224 0.1018,0.1401 0.0786,0.1543 0.0535,0.1647 0.027,0.171 h 11.3198 l 0.1982,-0.0531 0.234,-0.0308 v -10e-5 0 h 0.2361 v 0 10e-5 l 0.234,0.0308 0.2279,0.061 0.2181,0.0904 v 0 l 0.2044,0.118 0.1872,0.1437 h 1e-4 l 0.1668,0.1668 v 1e-4 l 0.1437,0.1872 0.118,0.2044 v 0 l 0.0904,0.2181 0.061,0.2279 0.0308,0.234 h 1e-4 3.0789 V 0.3435 L 75.9862,0.2765 75.9334,0.2308 75.8819,0.2195 H 0.3308 Z"
       id="path160" />
    <path
       style="fill:#02ffee;fill-opacity:0.4;fill-rule:evenodd;stroke:none"
       d="M 20.6563,46.469 20.6373,46.3734 20.5831,46.2923 20.502,46.2381 20.4063,46.219 h -0.6999 l -0.0957,0.0191 -0.0811,0.0542 -0.0542,0.0811 -0.019,0.0956 v 1.25 l 0.019,0.0957 0.0542,0.0811 0.0811,0.0542 0.0957,0.019 h 0.6999 l 0.0957,-0.019 0.0811,-0.0542 0.0542,-0.0811 0.019,-0.0957 z"
       id="path162" />
  </g>
  <g
     style="fill:none;stroke:#02ffee;stroke-width:1.2;stroke-linecap:round;stroke-linejoin:round;stroke-opacity:1"
     id="g168"
     transform="translate(0.01275,5.0000235e-5)">
    <path
       d="m 18.0563,46.819 v 0.55"
       id="path166" />
  </g>
  <g
     style="fill:#02ffee;fill-opacity:0.4;stroke:none"
     id="g182"
     transform="translate(0.01275,5.0000235e-5)">
    <circle
       cx="73.031403"
       cy="34.967999"
       r="0.44999999"
       id="circle170" />
    <circle
       cx="73.031403"
       cy="37.967999"
       r="0.44999999"
       id="circle172" />
    <circle
       cx="5.0862999"
       cy="5.0991001"
       r="1.6"
       id="circle174" />
    <circle
       cx="71.126404"
       cy="5.0991001"
       r="1.6"
       id="circle176" />
    <circle
       cx="5.0862999"
       cy="45.738998"
       r="1.6"
       id="circle178" />
    <path
       style="fill:#02ffee;fill-opacity:0.4;fill-rule:evenodd;stroke:none"
       d="m 17.4564,4.369 0.019,0.0957 0.0542,0.0811 0.0811,0.0542 0.0957,0.019 h 0.6999 L 18.502,4.6 18.5831,4.5458 18.6373,4.4647 18.6563,4.369 V 3.119 L 18.6373,3.0234 18.5831,2.9423 18.502,2.8881 18.4063,2.869 h -0.6999 l -0.0957,0.0191 -0.0811,0.0542 -0.0542,0.0811 -0.019,0.0956 z"
       id="path180" />
  </g>
  <g
     style="fill:none;stroke:#02ffee;stroke-width:1.2;stroke-linecap:round;stroke-linejoin:round;stroke-opacity:1"
     id="g188"
     transform="translate(0.01275,5.0000235e-5)">
    <path
       d="M 20.0563,4.0191 V 3.469"
       id="path184" />
    <path
       style="fill:#02ffee;fill-opacity:0.4;fill-rule:evenodd;stroke:none"
       d="M 4.3563,20.669 4.452,20.65 4.5331,20.5958 4.5873,20.5147 4.6063,20.419 v -0.7 L 4.5873,19.6234 4.5331,19.5423 4.452,19.4881 4.3563,19.469 h -1.25 L 3.0107,19.4881 2.9296,19.5423 2.8754,19.6234 2.8563,19.719 v 0.7 l 0.0191,0.0957 0.0542,0.0811 0.0811,0.0542 0.0956,0.019 z"
       id="path186" />
  </g>
  <g
     style="fill:none;stroke:#02ffee;stroke-width:1.2;stroke-linecap:round;stroke-linejoin:round;stroke-opacity:1"
     id="g194"
     transform="translate(0.01275,5.0000235e-5)">
    <path
       d="M 4.0063,18.0691 H 3.4564"
       id="path190" />
    <path
       style="fill:#02ffee;fill-opacity:0.4;fill-rule:evenodd;stroke:none"
       d="m 55.5563,4.369 0.0191,0.0957 0.0542,0.0811 0.0811,0.0542 0.0956,0.019 h 0.7 L 56.602,4.6 56.6831,4.5458 56.7373,4.4647 56.7563,4.369 V 3.119 L 56.7373,3.0234 56.6831,2.9423 56.602,2.8881 56.5063,2.869 h -0.7 L 55.7107,2.8881 55.6296,2.9423 55.5754,3.0234 55.5563,3.119 Z"
       id="path192" />
  </g>
  <g
     style="fill:none;stroke:#02ffee;stroke-width:1.2;stroke-linecap:round;stroke-linejoin:round;stroke-opacity:1"
     id="g198"
     transform="translate(0.01275,5.0000235e-5)">
    <path
       d="M 58.1563,4.0191 V 3.469"
       id="path196" />
  </g>
  <g
     style="fill:#02ffee;fill-opacity:0.4;stroke:none"
     id="g204"
     transform="translate(0.01275,5.0000235e-5)">
    <circle
       cx="69.156403"
       cy="22.528999"
       r="0.32499999"
       id="circle200" />
    <circle
       cx="69.156403"
       cy="28.309"
       r="0.32499999"
       id="circle202" />
  </g>
  <g
     style="fill:none;stroke:#02ffee;stroke-width:1;stroke-linecap:round;stroke-linejoin:round;stroke-opacity:1"
     id="g214"
     transform="translate(0.01275,5.0000235e-5)">
    <path
       d="m 68.0863,21.099 h 1.1"
       id="path206" />
    <path
       d="m 72.4363,21.099 h 0.8001"
       id="path208" />
    <path
       d="m 68.0863,29.739 h 1.1"
       id="path210" />
    <path
       d="m 72.4363,29.739 h 0.8001"
       id="path212" />
  </g>
  <g
     style="fill:#02ffee;fill-opacity:0.4;stroke:none"
     id="g220"
     transform="translate(0.01275,5.0000235e-5)">
    <circle
       cx="71.126404"
       cy="45.738998"
       r="1.6"
       id="circle216" />
    <path
       style="fill:#02ffee;fill-opacity:0.4;fill-rule:evenodd;stroke:none"
       d="M 4.3563,33.3691 4.452,33.35 4.5331,33.2958 4.5873,33.2147 4.6063,33.1191 V 32.419 L 4.5873,32.3234 4.5331,32.2423 4.452,32.1881 4.3563,32.169 h -1.25 L 3.0107,32.1881 2.9296,32.2423 2.8754,32.3234 2.8563,32.419 v 0.7001 l 0.0191,0.0956 0.0542,0.0811 0.0811,0.0542 0.0956,0.0191 z"
       id="path218" />
  </g>
  <g
     style="fill:none;stroke:#02ffee;stroke-width:1.2;stroke-linecap:round;stroke-linejoin:round;stroke-opacity:1"
     id="g226"
     transform="translate(0.01275,5.0000235e-5)">
    <path
       d="M 4.0063,30.7691 H 3.4564"
       id="path222" />
    <path
       style="fill:#02ffee;fill-opacity:0.4;fill-rule:evenodd;stroke:none"
       d="M 58.7563,46.469 58.7373,46.3734 58.6831,46.2923 58.602,46.2381 58.5063,46.219 h -0.7 l -0.0956,0.0191 -0.0811,0.0542 -0.0542,0.0811 -0.0191,0.0956 v 1.25 l 0.0191,0.0957 0.0542,0.0811 0.0811,0.0542 0.0956,0.019 h 0.7 l 0.0957,-0.019 0.0811,-0.0542 0.0542,-0.0811 0.019,-0.0957 z"
       id="path224" />
  </g>
  <g
     style="fill:none;stroke:#02ffee;stroke-width:1.2;stroke-linecap:round;stroke-linejoin:round;stroke-opacity:1"
     id="g230"
     transform="translate(0.01275,5.0000235e-5)">
    <path
       d="m 56.1563,46.819 v 0.55"
       id="path228" />
  </g>
  <g
     style="fill:none;stroke:#d0d2cd;stroke-width:0.0381;stroke-linecap:round;stroke-linejoin:round;stroke-opacity:1"
     id="g240"
     transform="translate(0.01275,5.0000235e-5)">
    <path
       d="M 76.2064,0.019 H 0.0063"
       id="path232" />
    <path
       d="m 0.0063,0.019 v 50.8"
       id="path234" />
    <path
       d="M 76.2064,50.819 V 0.019"
       id="path236" />
    <path
       d="M 0.0063,50.819 H 76.2064"
       id="path238" />
  </g>
  <g
     style="fill:#ffffff;fill-opacity:1;stroke:none"
     id="g334"
     transform="translate(0.01275,5.0000235e-5)">
    <circle
       cx="15.3556"
       cy="43.082001"
       r="0.127"
       id="circle242" />
    <circle
       cx="7.7433"
       cy="15.366"
       r="0.127"
       id="circle244" />
    <circle
       cx="7.7433"
       cy="28.056601"
       r="0.127"
       id="circle246" />
    <circle
       cx="65.409401"
       cy="25.673"
       r="0.127"
       id="circle248" />
    <circle
       cx="8.4302998"
       cy="34.156601"
       r="0.127"
       id="circle250" />
    <circle
       cx="69.602402"
       cy="40.618"
       r="0.127"
       id="circle252" />
    <circle
       cx="59.553299"
       cy="42.395"
       r="0.127"
       id="circle254" />
    <circle
       cx="22.7593"
       cy="7.756"
       r="0.127"
       id="circle256" />
    <circle
       cx="69.183296"
       cy="37.224998"
       r="0.127"
       id="circle258" />
    <circle
       cx="54.753799"
       cy="8.4429998"
       r="0.127"
       id="circle260" />
    <circle
       cx="60.853802"
       cy="7.756"
       r="0.127"
       id="circle262" />
    <circle
       cx="16.6593"
       cy="8.4429998"
       r="0.127"
       id="circle264" />
    <circle
       cx="53.4534"
       cy="43.082001"
       r="0.127"
       id="circle266" />
    <circle
       cx="21.455601"
       cy="42.395"
       r="0.127"
       id="circle268" />
    <circle
       cx="66.429298"
       cy="29.864"
       r="0.127"
       id="circle270" />
    <circle
       cx="8.4302998"
       cy="21.466"
       r="0.127"
       id="circle272" />
    <circle
       cx="61.0933"
       cy="10.687"
       r="0.127"
       id="circle274" />
    <circle
       cx="10.6743"
       cy="15.132"
       r="0.127"
       id="circle276" />
    <circle
       cx="10.6743"
       cy="27.832001"
       r="0.127"
       id="circle278" />
    <circle
       cx="62.3148"
       cy="40.151001"
       r="0.127"
       id="circle280" />
    <circle
       cx="53.219299"
       cy="40.151001"
       r="0.127"
       id="circle282" />
    <circle
       cx="22.993299"
       cy="10.687"
       r="0.127"
       id="circle284" />
    <circle
       cx="15.1193"
       cy="40.151001"
       r="0.127"
       id="circle286" />
    <circle
       cx="12.7913"
       cy="15.132"
       r="0.127"
       id="circle288" />
    <circle
       cx="64.903397"
       cy="39.668098"
       r="0.127"
       id="circle290" />
    <circle
       cx="64.5224"
       cy="33.805099"
       r="0.127"
       id="circle292" />
    <circle
       cx="22.993299"
       cy="12.8041"
       r="0.127"
       id="circle294" />
    <circle
       cx="12.7913"
       cy="27.832001"
       r="0.127"
       id="circle296" />
    <circle
       cx="61.0933"
       cy="12.8041"
       r="0.127"
       id="circle298" />
    <circle
       cx="15.1193"
       cy="38.0341"
       r="0.127"
       id="circle300" />
    <circle
       cx="53.219299"
       cy="38.0341"
       r="0.127"
       id="circle302" />
    <circle
       cx="20.056299"
       cy="47.094002"
       r="0.375"
       id="circle304" />
    <circle
       cx="18.056299"
       cy="47.094002"
       r="0.375"
       id="circle306" />
    <circle
       cx="73.031403"
       cy="34.967999"
       r="0.44999999"
       id="circle308" />
    <circle
       cx="73.031403"
       cy="37.967999"
       r="0.44999999"
       id="circle310" />
    <circle
       cx="5.0862999"
       cy="5.0991001"
       r="1.6"
       id="circle312" />
    <circle
       cx="71.126404"
       cy="5.0991001"
       r="1.6"
       id="circle314" />
    <circle
       cx="5.0862999"
       cy="45.738998"
       r="1.6"
       id="circle316" />
    <circle
       cx="18.056299"
       cy="3.744"
       r="0.375"
       id="circle318" />
    <circle
       cx="20.056299"
       cy="3.744"
       r="0.375"
       id="circle320" />
    <circle
       cx="3.7313001"
       cy="20.069099"
       r="0.375"
       id="circle322" />
    <circle
       cx="3.7313001"
       cy="18.069099"
       r="0.375"
       id="circle324" />
    <circle
       cx="56.1563"
       cy="3.744"
       r="0.375"
       id="circle326" />
    <circle
       cx="58.1563"
       cy="3.744"
       r="0.375"
       id="circle328" />
    <circle
       cx="69.156403"
       cy="22.528999"
       r="0.32499999"
       id="circle330" />
    <circle
       cx="69.156403"
       cy="28.309"
       r="0.32499999"
       id="circle332" />
  </g>
  <g
     style="fill:none;stroke:#ffffff;stroke-width:0.6;stroke-linecap:round;stroke-linejoin:round;stroke-opacity:1"
     id="g344"
     transform="translate(0.01275,5.0000235e-5)">
    <path
       d="m 68.0863,21.099 h 1.1"
       id="path336" />
    <path
       d="m 72.4363,21.099 h 0.8001"
       id="path338" />
    <path
       d="m 68.0863,29.739 h 1.1"
       id="path340" />
    <path
       d="m 72.4363,29.739 h 0.8001"
       id="path342" />
  </g>
  <g
     style="fill:#ffffff;fill-opacity:1;stroke:none"
     id="g356"
     transform="translate(0.01275,5.0000235e-5)">
    <circle
       cx="71.126404"
       cy="45.738998"
       r="1.6"
       id="circle346" />
    <circle
       cx="3.7313001"
       cy="32.7691"
       r="0.375"
       id="circle348" />
    <circle
       cx="3.7313001"
       cy="30.7691"
       r="0.375"
       id="circle350" />
    <circle
       cx="58.1563"
       cy="47.094002"
       r="0.375"
       id="circle352" />
    <circle
       cx="56.1563"
       cy="47.094002"
       r="0.375"
       id="circle354" />
  </g>
</svg>
